<?xml version="1.0" encoding="UTF-8" standalone="no"?>
<svg
   xmlns:dc="http://purl.org/dc/elements/1.1/"
   xmlns:cc="http://creativecommons.org/ns#"
   xmlns:rdf="http://www.w3.org/1999/02/22-rdf-syntax-ns#"
   xmlns:svg="http://www.w3.org/2000/svg"
   xmlns="http://www.w3.org/2000/svg"
   xmlns:sodipodi="http://sodipodi.sourceforge.net/DTD/sodipodi-0.dtd"
   xmlns:inkscape="http://www.inkscape.org/namespaces/inkscape"
   width="210mm"
   height="297mm"
   viewBox="0 0 210 297"
   version="1.1"
   id="svg1982"
   inkscape:version="1.0.1 (3bc2e813f5, 2020-09-07)"
   sodipodi:docname="bell_on.svg">
  <defs
     id="defs1976" />
  <sodipodi:namedview
     id="base"
     pagecolor="#ffffff"
     bordercolor="#666666"
     borderopacity="1.0"
     inkscape:pageopacity="0.0"
     inkscape:pageshadow="2"
     inkscape:zoom="0.7"
     inkscape:cx="148.6279"
     inkscape:cy="348.21648"
     inkscape:document-units="mm"
     inkscape:current-layer="layer5"
     inkscape:document-rotation="0"
     showgrid="false"
     inkscape:window-width="1920"
     inkscape:window-height="986"
     inkscape:window-x="-11"
     inkscape:window-y="1609"
     inkscape:window-maximized="1" />
  <metadata
     id="metadata1979">
    <rdf:RDF>
      <cc:Work
         rdf:about="">
        <dc:format>image/svg+xml</dc:format>
        <dc:type
           rdf:resource="http://purl.org/dc/dcmitype/StillImage" />
        <dc:title></dc:title>
      </cc:Work>
    </rdf:RDF>
  </metadata>
  <g
     inkscape:groupmode="layer"
     id="layer5"
     inkscape:label="Layer 2">
    <path
       id="path2578"
       style="fill:#ffffff;fill-opacity:1;stroke-width:0"
       d="M 60.240494,2.2323939 A 55.940475,55.940475 0 0 0 4.3002389,58.173163 55.940475,55.940475 0 0 0 60.240494,114.11342 55.940475,55.940475 0 0 0 116.18127,58.173163 55.940475,55.940475 0 0 0 60.240494,2.2323939 Z M 60.052907,8.713651 c 0.398759,0 0.797309,0.037216 1.044898,0.1116198 1.238864,0.3723111 2.219021,1.3410092 2.634983,2.6050112 0.0983,0.298608 0.109786,0.644847 0.128156,3.804417 l 0.02015,3.475241 0.250631,0.02997 c 0.137891,0.0165 0.613871,0.07393 1.057299,0.12764 8.16243,0.98778 15.652155,5.681829 20.197733,12.658659 2.227713,3.419221 3.673539,7.20531 4.283978,11.21792 0.301691,1.9831 0.301617,1.960841 0.302307,14.939656 6.01e-4,7.494902 0.02228,12.257331 0.05788,12.474691 0.145219,0.886751 0.652407,1.523754 1.643827,2.064475 3.69606,2.015829 6.501207,5.383959 7.851717,9.427847 0.537184,1.60853 0.799754,3.211042 0.804084,4.907712 0.003,1.006509 -0.009,1.13929 -0.13539,1.49293 -0.41008,1.15408 -1.227748,1.991026 -2.384869,2.441196 l -0.402558,0.156578 -11.645284,0.02998 -11.645286,0.02997 -0.03824,0.955497 c -0.0598,1.506768 -0.273923,2.66877 -0.746723,4.049882 -0.693042,2.02447 -1.794912,3.785492 -3.334681,5.328867 -2.17106,2.17614 -4.884307,3.54683 -7.914246,3.99873 -0.752351,0.11221 -2.637692,0.16247 -3.343981,0.0889 -4.44585,-0.46341 -8.246576,-2.81161 -10.61279,-6.55722 -0.760079,-1.203203 -1.460095,-2.91161 -1.771465,-4.322238 -0.218771,-0.991122 -0.285792,-1.520373 -0.328144,-2.586922 l -0.03824,-0.955497 -11.645284,-0.02997 -11.645283,-0.02998 -0.402558,-0.156578 c -1.157118,-0.45017 -1.974787,-1.287116 -2.38487,-2.441196 -0.125658,-0.35364 -0.137959,-0.486421 -0.135392,-1.49293 0.0016,-0.60765 0.03605,-1.360221 0.07648,-1.672252 0.705961,-5.448278 3.867102,-10.096312 8.634097,-12.69483 0.981144,-0.534831 1.440538,-1.11479 1.5844,-2.00143 0.04157,-0.256219 0.06203,-4.396943 0.06253,-12.506213 7.89e-4,-12.746604 0.0047,-12.950865 0.268201,-14.721065 0.916485,-6.157179 3.663799,-11.631387 8.033101,-16.006257 4.463611,-4.46931 10.31951,-7.343071 16.482714,-8.088913 0.44342,-0.0537 0.919411,-0.11117 1.057301,-0.12764 l 0.250629,-0.02997 0.02016,-3.475241 c 0.0184,-3.15957 0.02987,-3.505809 0.128157,-3.804417 0.415951,-1.264002 1.396121,-2.2327001 2.634982,-2.6050112 C 59.255607,8.7508658 59.654157,8.71365 60.052913,8.71365 Z m 0.0041,17.556035 c -1.475777,1.25e-4 -2.953001,0.02741 -3.468005,0.08113 -3.1838,0.33206 -6.077455,1.279753 -8.686808,2.845303 -5.301586,3.18081 -8.890606,8.441393 -9.880533,14.483355 -0.27036,1.650108 -0.264732,1.379701 -0.303859,14.751036 l -0.03721,12.810072 -0.129707,0.593762 c -0.690033,3.15826 -2.502429,5.503995 -5.515943,7.139615 -1.211344,0.657471 -2.336451,1.694793 -3.140892,2.896465 -0.339022,0.506428 -0.676334,1.140613 -0.630971,1.185973 0.05528,0.0553 63.547995,0.04775 63.582166,-0.0078 h 5.16e-4 c 0.0418,-0.0676 -0.524878,-1.047202 -0.905886,-1.566312 -0.4172,-0.56842 -1.283787,-1.435724 -1.862937,-1.864487 -0.24635,-0.18238 -0.824319,-0.547389 -1.28416,-0.811318 -0.459848,-0.26393 -1.05179,-0.640482 -1.31568,-0.836642 -1.995501,-1.483331 -3.344535,-3.594293 -3.918625,-6.132441 l -0.134874,-0.596863 -0.03617,-12.810072 c -0.0396,-14.033486 -0.02123,-13.320119 -0.394808,-15.258499 -1.134092,-5.885162 -4.635127,-10.883651 -9.789068,-13.975892 -2.612509,-1.56745 -5.487058,-2.509518 -8.686807,-2.846337 -0.50944,-0.05363 -1.98396,-0.08022 -3.459737,-0.0801 z m -6.394442,64.409505 v 0.57309 c 0,3.017411 2.233991,5.62011 5.329391,6.20944 0.67555,0.128619 1.900526,0.07398 2.643248,-0.117822 1.13742,-0.293679 2.357382,-1.017603 3.107822,-1.844331 1.08013,-1.18995 1.700155,-2.738218 1.700155,-4.247287 v -0.57309 h -6.39031 z" />
  </g>
  <g
     inkscape:label="Layer 1"
     inkscape:groupmode="layer"
     id="layer1" />
</svg>
