<?xml version="1.0" encoding="UTF-8" standalone="no"?>
<svg
   xmlns:dc="http://purl.org/dc/elements/1.1/"
   xmlns:cc="http://creativecommons.org/ns#"
   xmlns:rdf="http://www.w3.org/1999/02/22-rdf-syntax-ns#"
   xmlns:svg="http://www.w3.org/2000/svg"
   xmlns="http://www.w3.org/2000/svg"
   xmlns:sodipodi="http://sodipodi.sourceforge.net/DTD/sodipodi-0.dtd"
   xmlns:inkscape="http://www.inkscape.org/namespaces/inkscape"
   width="50.554314mm"
   height="50.554314mm"
   viewBox="0 0 50.554314 50.554314"
   version="1.1"
   id="svg1603"
   inkscape:version="1.0.1 (3bc2e813f5, 2020-09-07)"
   sodipodi:docname="brainBlack.svg"
   inkscape:export-filename="C:\Users\victo\OneDrive\Documents\Wits\Year 4\ELEN4010\Group Project\2021-001-project\public\assets\brainBlack.png"
   inkscape:export-xdpi="300"
   inkscape:export-ydpi="300">
  <defs
     id="defs1597" />
  <sodipodi:namedview
     id="base"
     pagecolor="#ffffff"
     bordercolor="#666666"
     borderopacity="1.0"
     inkscape:pageopacity="0.0"
     inkscape:pageshadow="2"
     inkscape:zoom="2.8"
     inkscape:cx="51.93122"
     inkscape:cy="54.620462"
     inkscape:document-units="mm"
     inkscape:current-layer="layer1"
     inkscape:document-rotation="0"
     showgrid="false"
     inkscape:window-width="1920"
     inkscape:window-height="986"
     inkscape:window-x="-11"
     inkscape:window-y="1609"
     inkscape:window-maximized="1" />
  <metadata
     id="metadata1600">
    <rdf:RDF>
      <cc:Work
         rdf:about="">
        <dc:format>image/svg+xml</dc:format>
        <dc:type
           rdf:resource="http://purl.org/dc/dcmitype/StillImage" />
        <dc:title />
      </cc:Work>
    </rdf:RDF>
  </metadata>
  <g
     inkscape:label="Layer 1"
     inkscape:groupmode="layer"
     id="layer1"
     transform="translate(-68.382065,-67.229713)">
    <path
       id="path1096-9-3-9"
       style="display:inline;fill:#182224;fill-opacity:1;stroke-width:0.109715"
       d="m 86.884788,73.563312 c -0.775952,0.0225 -1.548862,0.174152 -2.28501,0.466614 -1.767872,0.702557 -3.365151,2.152521 -4.217866,3.828158 -0.256464,0.503968 -0.330433,0.562685 -1.005756,0.802151 -2.476587,0.878283 -4.155771,3.195189 -4.31049,5.947146 l -0.05854,1.04769 -0.418558,0.241115 c -1.704353,0.9809 -3.114969,2.884213 -3.674358,4.958002 -0.29657,1.099583 -0.277027,3.014837 0.04193,4.037839 l 0.249907,0.8013 -0.726133,0.784662 c -1.36728,1.4768 -2.132912,3.610531 -1.985291,5.531211 0.111629,1.45246 0.455128,2.66371 1.059052,3.73378 l 0.32244,0.57148 0.08212,0.11794 1.793895,2.26131 44.19199,-0.002 1.49333,-2.25878 0.0655,-0.11269 0.37399,-0.68332 c 0.49881,-0.91074 0.91089,-2.37974 1.00051,-3.56775 0.15014,-1.98876 -0.59544,-4.094187 -1.98092,-5.590625 l -0.72702,-0.784686 0.24992,-0.801275 c 0.31902,-1.023029 0.33942,-2.938281 0.0428,-4.037867 -0.55938,-2.073788 -1.96998,-3.977074 -3.67436,-4.957975 l -0.41856,-0.241115 -0.0594,-1.047714 c -0.10066,-1.789982 -0.71548,-3.185553 -1.93811,-4.396976 -0.76848,-0.761473 -1.56446,-1.268439 -2.51567,-1.602552 -0.51717,-0.181649 -0.61828,-0.269426 -0.86247,-0.749731 -0.85141,-1.674738 -2.44983,-3.125551 -4.21785,-3.828158 -2.944618,-1.170146 -6.467968,-0.09669 -8.482939,2.583853 -0.285765,0.380138 -0.558005,0.69119 -0.604674,0.69119 -0.04667,0 -0.318913,-0.311052 -0.604679,-0.69119 -1.511221,-2.010349 -3.870939,-3.11663 -6.198786,-3.050467 z m 0.11708,2.150447 c 2.495787,0 4.760239,1.88557 5.410615,4.505353 0.150867,0.607687 0.178276,1.434297 0.178276,5.293538 0,2.515446 -0.01775,4.574368 -0.04017,4.574368 -0.0225,0 -0.282403,-0.107689 -0.576709,-0.238618 -0.365364,-0.162408 -0.768708,-0.239616 -1.272263,-0.246361 -0.664096,-0.0075 -0.767626,0.02 -1.03983,0.292739 -0.229222,0.228872 -0.302339,0.407297 -0.302339,0.740111 0,0.621875 0.359346,0.952316 1.203228,1.104479 0.794418,0.143169 1.364534,0.494173 1.713543,1.055585 l 0.260383,0.418541 0.02881,10.794136 0.0068,2.42482 H 73.201634 c -1.175841,-0.83016 -2.037966,-2.11364 -2.393358,-3.59484 -0.493751,-2.05787 0.296118,-4.23261 2.02461,-5.574909 1.027962,-0.798277 1.054452,-0.97283 0.392343,-2.553243 -0.889356,-2.122865 -0.146817,-4.751493 1.814899,-6.425981 1.98661,-1.695701 4.646228,-1.673414 6.645301,0.05672 1.251689,1.083319 1.893222,2.344088 2.12248,4.169819 0.07843,0.624723 0.159061,0.851971 0.381854,1.074773 0.401846,0.401823 1.049987,0.392079 1.461882,-0.02 0.282892,-0.283516 0.301067,-0.359098 0.289227,-1.2041 -0.03486,-2.61009 -1.766526,-5.352755 -4.193403,-6.641834 -1.171281,-0.622126 -2.034144,-0.839905 -3.337067,-0.841453 -1.333682,-0.0018 -1.271049,0.05547 -1.056434,-0.955966 0.376739,-1.775606 1.764596,-3.085797 3.601833,-3.400846 1.273029,-0.218378 2.338151,0.08745 3.586982,1.030223 1.036379,0.782437 2.014122,0.452197 2.014122,-0.680694 0,-0.793281 -1.88484,-2.103423 -3.538917,-2.460648 -0.165931,-0.03573 -0.301463,-0.108938 -0.301463,-0.16166 0,-0.210381 1.080655,-1.281008 1.692565,-1.676836 0.770938,-0.498697 1.853805,-0.856322 2.592584,-0.856322 z m 13.372762,0 c 0.73875,0 1.82164,0.357649 2.59258,0.856345 0.61191,0.395829 1.69256,1.466455 1.69256,1.676837 0,0.05273 -0.13644,0.124926 -0.30233,0.160661 -1.65408,0.357224 -3.53805,1.668216 -3.53805,2.461522 0,1.132868 0.97774,1.463134 2.01413,0.680697 1.24883,-0.942822 2.31397,-1.24853 3.58698,-1.030227 0.97948,0.167905 1.7472,0.557064 2.41346,1.223319 0.60687,0.606857 1.01288,1.350392 1.18837,2.177529 0.21464,1.011508 0.27726,0.954292 -1.05643,0.955963 -1.30291,0.0018 -2.16579,0.219378 -3.33707,0.84148 -2.42688,1.289032 -4.15857,4.031719 -4.1934,6.641808 -0.0115,0.845005 0.006,0.920588 0.28923,1.204104 0.41187,0.413041 1.06004,0.421937 1.46189,0.02 0.22276,-0.222875 0.30339,-0.449174 0.38184,-1.073924 0.0547,-0.435633 0.16958,-1.027724 0.25516,-1.31594 0.71715,-2.414897 2.97289,-4.188629 5.31188,-4.176813 3.59624,0.01749 6.41693,4.345218 5.01478,7.692145 -0.66211,1.580418 -0.63475,1.754971 0.39321,2.553248 1.72848,1.342273 2.51837,3.517057 2.02461,5.574907 -0.35542,1.48137 -1.21815,2.76467 -2.39423,3.59484 H 94.804112 l 0.0059,-2.42482 0.02971,-10.794138 0.260384,-0.418563 c 0.348987,-0.561386 0.919105,-0.913216 1.713536,-1.056434 0.843868,-0.152165 1.203233,-0.481757 1.203233,-1.10361 0,-0.332813 -0.07311,-0.511312 -0.302334,-0.740108 -0.272208,-0.271598 -0.375746,-0.302059 -1.039836,-0.293613 -0.503556,0.0049 -0.90778,0.08471 -1.27314,0.247362 -0.294295,0.130925 -0.553345,0.237616 -0.575831,0.237616 -0.0225,0 -0.04108,-2.058023 -0.04108,-4.573516 0,-3.859193 0.02833,-4.685851 0.179151,-5.293514 0.650375,-2.619809 2.914818,-4.505354 5.410615,-4.505354 z m -12.277871,6.962503 c -0.22295,0.0225 -0.445265,0.121179 -0.632633,0.308455 -0.529989,0.530001 -0.345288,1.436843 0.353888,1.736253 0.639321,0.273773 1.421688,-0.275398 1.421688,-0.997894 0,-0.589494 -0.433397,-0.990596 -0.920997,-1.045938 -0.07314,-0.0075 -0.147617,-0.01 -0.221926,-9.26e-4 z m 10.971525,0 c -0.222945,0.0225 -0.445253,0.121179 -0.632633,0.308455 -0.529969,0.530001 -0.345301,1.436843 0.353887,1.736253 0.639302,0.273773 1.421682,-0.275398 1.421682,-0.997894 0,-0.589494 -0.43338,-0.990596 -0.920992,-1.045938 -0.07315,-0.0075 -0.147636,-0.01 -0.221923,-9.26e-4 z m -20.745938,9.10246 c -0.263784,0.0025 -0.528781,0.108937 -0.734868,0.315445 -0.278327,0.279047 -0.300422,0.367895 -0.295347,1.149931 0.01349,1.774807 0.805616,3.531023 2.239565,4.964971 1.032007,1.032001 1.911714,1.562879 3.267168,1.972171 0.437493,0.13218 0.795165,0.29938 0.795165,0.37224 0,0.24362 -0.630872,1.1305 -1.009245,1.41909 -0.509901,0.38893 -1.026371,0.59164 -1.850726,0.72437 -0.49889,0.0805 -0.774101,0.19039 -0.97255,0.38885 -0.50768,0.50767 -0.304341,1.4296 0.376612,1.7083 0.322731,0.13217 0.68039,0.11919 1.510815,-0.0567 1.939011,-0.4109 3.624161,-1.98347 4.126993,-3.85087 0.117433,-0.43603 0.125732,-0.44188 0.915752,-0.62565 1.587157,-0.369248 3.493025,-1.560854 3.651636,-2.283276 0.147069,-0.669498 -0.384119,-1.308092 -1.088763,-1.308092 -0.15159,0 -0.660529,0.260454 -1.130704,0.57935 -1.007771,0.683543 -1.758614,0.952494 -2.883569,1.031976 -1.406521,0.09944 -2.915256,-0.439004 -4.024758,-1.436549 -1.027939,-0.924206 -1.580775,-2.052827 -1.776445,-3.628917 -0.08582,-0.691212 -0.16156,-0.912162 -0.389723,-1.140337 -0.201062,-0.201138 -0.463215,-0.299704 -0.727008,-0.296209 z m 30.731814,9.23e-4 c -0.26375,-0.0025 -0.52615,0.09444 -0.72701,0.295335 -0.22422,0.224375 -0.30348,0.449048 -0.38446,1.094012 -0.19582,1.560577 -0.66644,2.549099 -1.6917,3.555536 -2.00427,1.967349 -4.81537,2.101373 -7.258723,0.346006 -0.310215,-0.222875 -0.688455,-0.401076 -0.851962,-0.401076 -0.722738,0 -1.256792,0.630548 -1.10799,1.308093 0.158663,0.722421 2.065344,1.914004 3.652515,2.283269 0.79005,0.1839 0.7984,0.18965 0.91575,0.62563 0.49513,1.83875 2.17005,3.42128 4.07545,3.85089 1.40841,0.31753 2.2151,-0.025 2.2151,-0.93672 0,-0.64049 -0.36367,-0.96091 -1.24954,-1.10363 -0.82436,-0.13268 -1.34084,-0.33547 -1.85074,-0.72437 -0.37838,-0.28859 -1.00925,-1.17557 -1.00925,-1.41908 0,-0.0729 0.35856,-0.24012 0.79605,-0.37225 1.35546,-0.409293 2.23519,-0.941045 3.26717,-1.973043 1.43394,-1.433948 2.22604,-3.18929 2.23956,-4.964097 0.006,-0.782036 -0.0171,-0.870887 -0.29533,-1.149931 -0.20599,-0.206384 -0.47112,-0.311001 -0.73489,-0.314574 z"
       sodipodi:nodetypes="sssscccscccscccccccccccsscccssssssssssssscssscccccssscsssccscssssssssssscssssscsssssccsssccccccscccsscssssssssssssscccsssssssssscsscssscsscssssscssssscssss" />
  </g>
</svg>
