<?xml version="1.0" encoding="UTF-8" standalone="no"?>
<svg
   xmlns:dc="http://purl.org/dc/elements/1.1/"
   xmlns:cc="http://creativecommons.org/ns#"
   xmlns:rdf="http://www.w3.org/1999/02/22-rdf-syntax-ns#"
   xmlns:svg="http://www.w3.org/2000/svg"
   xmlns="http://www.w3.org/2000/svg"
   xmlns:sodipodi="http://sodipodi.sourceforge.net/DTD/sodipodi-0.dtd"
   xmlns:inkscape="http://www.inkscape.org/namespaces/inkscape"
   width="186.96126mm"
   height="207.99765mm"
   viewBox="0 0 186.96126 207.99765"
   version="1.1"
   id="svg247"
   inkscape:version="1.0.1 (3bc2e813f5, 2020-09-07)"
   sodipodi:docname="brainCream.svg">
  <defs
     id="defs241" />
  <sodipodi:namedview
     id="base"
     pagecolor="#ffffff"
     bordercolor="#666666"
     borderopacity="1.0"
     inkscape:pageopacity="0.0"
     inkscape:pageshadow="2"
     inkscape:zoom="0.35"
     inkscape:cx="184.56067"
     inkscape:cy="448.40499"
     inkscape:document-units="mm"
     inkscape:current-layer="layer1"
     inkscape:document-rotation="0"
     showgrid="false"
     inkscape:window-width="1624"
     inkscape:window-height="1228"
     inkscape:window-x="228"
     inkscape:window-y="1620"
     inkscape:window-maximized="0" />
  <metadata
     id="metadata244">
    <rdf:RDF>
      <cc:Work
         rdf:about="">
        <dc:format>image/svg+xml</dc:format>
        <dc:type
           rdf:resource="http://purl.org/dc/dcmitype/StillImage" />
        <dc:title></dc:title>
      </cc:Work>
    </rdf:RDF>
  </metadata>
  <g
     inkscape:label="Layer 1"
     inkscape:groupmode="layer"
     id="layer1"
     transform="translate(-15.424276,-29.526179)">
    <path
       style="display:inline;fill:#edf0df;fill-opacity:1;stroke-width:0.406825"
       d="M 74.603662,237.04766 C 66.4641,235.5064 58.49464,230.37251 53.938406,223.73503 c -1.467352,-2.13754 -1.735956,-2.33943 -3.116155,-2.342 -2.572867,-0.007 -8.203329,-1.5698 -11.072136,-3.07729 -5.740811,-3.0167 -10.178669,-7.57672 -13.037444,-13.39627 -2.304075,-4.69034 -2.932321,-7.37394 -3.009129,-12.85286 l -0.06583,-4.71642 -1.479516,-1.80556 c -5.222163,-6.37294 -7.603107,-14.4453 -6.447684,-21.86011 0.613826,-3.93771 1.806493,-7.44743 3.516993,-10.34783 l 1.390169,-2.35725 -1.19718,-2.12124 c -2.239369,-3.96787 -3.513294,-8.45876 -3.927235,-13.84446 -0.547365,-7.12188 2.291974,-15.03133 7.36184,-20.50725 l 2.694252,-2.91005 -0.926382,-2.97088 C 23.440146,104.83218 23.365283,97.730611 24.464967,93.653331 26.539185,85.96376 31.770816,78.904236 38.090594,75.26705 l 1.551369,-0.892838 0.21882,-3.887295 c 0.573699,-10.204252 6.799239,-18.792741 15.982432,-22.049405 2.504086,-0.888011 2.778708,-1.107146 3.729669,-2.975899 3.161863,-6.213314 9.085067,-11.588651 15.640344,-14.193682 10.918521,-4.338918 23.985873,-0.359267 31.457372,9.579828 1.05962,1.409606 2.06807,2.562897 2.24106,2.562897 0.17304,0 1.1815,-1.153291 2.24112,-2.562897 7.4715,-9.939283 20.53879,-13.918746 31.45738,-9.579828 6.55584,2.605282 12.48224,7.983818 15.63934,14.193682 0.90544,1.780975 1.28001,2.106635 3.1976,2.780276 3.52716,1.239002 6.47841,3.119166 9.32796,5.942704 4.53348,4.491967 6.81423,9.665037 7.18748,16.302324 l 0.21882,3.887295 1.55131,0.892838 c 6.31984,3.637186 11.55147,10.69671 13.62569,18.386281 1.09981,4.07728 1.02494,11.178849 -0.15801,14.972229 l -0.92638,2.97088 2.69425,2.91005 c 5.13739,5.54884 7.9035,13.35257 7.34679,20.7269 -0.3323,4.40519 -1.86041,9.85388 -3.71004,13.23092 l -1.38797,2.53419 1.38446,2.34771 c 5.94113,10.0744 4.77618,22.78631 -2.9527,32.21836 l -1.49576,1.82542 -0.025,4.6965 c -0.0314,5.35038 -0.89622,8.88569 -3.30086,13.49038 -4.54884,8.71044 -13.36437,14.82049 -22.6248,15.68117 l -2.79225,0.25958 -1.56441,2.27842 c -7.31645,10.65519 -21.53703,16.01329 -33.98028,12.80289 -7.71646,-1.99076 -15.51106,-7.71553 -19.45339,-14.28767 -0.70475,-1.17473 -1.37876,-2.13579 -1.49802,-2.13579 -0.11913,0 -0.79328,0.96106 -1.49795,2.13579 -3.96365,6.60751 -11.727152,12.29113 -19.553897,14.3152 -3.698826,0.95648 -9.461959,1.13975 -13.255894,0.42134 z m 13.201595,-8.83476 c 4.039899,-1.47313 6.362536,-2.97923 9.514746,-6.16943 9.669987,-9.78661 9.999907,-24.9972 0.755147,-34.81424 -4.240603,-4.50305 -9.348525,-6.94281 -16.122063,-7.70066 -2.680959,-0.2997 -3.438933,-0.54987 -4.309387,-1.42026 -2.213411,-2.21336 -0.893966,-5.99851 2.299874,-6.59773 1.968006,-0.3693 7.220262,0.44078 10.925476,1.68436 4.146249,1.3918 8.132112,3.77425 11.34896,6.78344 l 2.6407,2.47029 -0.10909,-40.02431 -0.10909,-40.02434 -0.96545,-1.55295 c -1.29411,-2.081609 -3.40645,-3.383439 -6.35212,-3.914689 -3.129135,-0.56429 -4.461811,-1.7868 -4.461811,-4.0927 0,-1.23405 0.27086,-1.89766 1.12087,-2.746043 1.009343,-1.007383 1.393125,-1.115541 3.855576,-1.086078 1.867181,0.02508 3.364065,0.312869 4.718815,0.915348 1.09128,0.485293 2.0524,0.882687 2.13579,0.882687 0.0834,0 0.15173,-7.631535 0.15173,-16.958874 0,-14.309989 -0.10343,-17.375985 -0.66292,-19.629273 -2.4116,-9.714194 -10.807854,-16.705731 -20.062216,-16.705731 -2.739396,0 -6.753907,1.326153 -9.612557,3.175344 -2.268963,1.467728 -6.276389,5.437786 -6.276389,6.217828 0,0.195622 0.503475,0.463975 1.118743,0.596898 6.13331,1.324585 13.120083,6.184346 13.120083,9.125822 0,4.200792 -3.625588,5.426626 -7.468492,2.525277 -4.630658,-3.496176 -8.579461,-4.630783 -13.299841,-3.821334 -6.812469,1.168213 -11.957261,6.02647 -13.354202,12.610462 -0.795779,3.750484 -1.029397,3.539 3.915886,3.544957 4.831233,0.0058 8.03197,0.812646 12.375089,3.119542 8.998857,4.779818 15.420018,14.950293 15.549305,24.628438 0.04389,3.133279 -0.02508,3.414539 -1.07404,4.465819 -1.527293,1.53156 -3.93062,1.5646 -5.420669,0.0747 -0.826187,-0.82611 -1.125263,-1.66766 -1.416126,-3.984159 -0.850077,-6.7697 -3.228952,-11.442688 -7.870206,-15.459664 -7.412563,-6.415581 -17.272344,-6.50079 -24.638699,-0.213178 -7.273998,6.209007 -10.026937,15.957621 -6.729204,23.829211 2.455117,5.86019 2.355864,6.50568 -1.455815,9.46571 -6.409249,4.9772 -9.338373,13.04328 -7.507553,20.67385 1.394934,5.81373 4.878195,10.82773 9.63701,13.8719 2.725289,1.74337 5.368817,2.6557 9.025755,3.11485 3.559753,0.44704 4.929921,1.5804 4.929921,4.07797 0,2.11441 -1.439952,3.63436 -3.734622,3.94215 -3.740076,0.50159 -11.501688,-1.97208 -15.579275,-4.96528 l -1.918849,-1.40856 -1.04664,2.33461 c -3.520315,7.85266 -2.063434,15.71936 4.181981,22.58129 1.26916,1.39449 2.428533,2.86198 2.576315,3.26105 0.147971,0.39877 0.05643,2.09247 -0.203772,3.76309 -1.559959,10.03403 5.102658,20.82351 14.700293,23.80586 1.850131,0.57495 3.582325,0.7912 5.903203,0.73709 1.891764,-0.0438 3.663897,0.12609 4.178784,0.40191 0.491562,0.26333 1.582029,1.71189 2.422889,3.21936 3.261368,5.84672 9.627292,10.64547 16.066826,12.11144 3.682769,0.83835 9.174915,0.52291 12.591898,-0.72285 z m -12.863646,-7.1863 c -1.612439,-0.69048 -2.298808,-1.9535 -2.670615,-4.9143 -0.846002,-6.73773 -3.232714,-11.41912 -7.866382,-15.42956 -3.467334,-3.0009 -6.173061,-4.0735 -12.891918,-5.11054 -3.267451,-0.50411 -4.583696,-4.32324 -2.281942,-6.62049 1.034914,-1.03297 1.361954,-1.11692 4.262424,-1.09373 13.4638,0.10785 26.504443,13.65416 26.692478,27.72815 0.04389,3.05446 -0.04389,3.43215 -0.972341,4.3635 -1.129027,1.13196 -3.02637,1.6103 -4.271704,1.07697 z M 53.477566,178.45948 c -1.763167,-1.63495 -1.56278,-3.79977 0.657967,-7.10728 6.521669,-9.71306 17.764283,-15.92267 29.032854,-16.03573 2.681776,-0.025 3.035838,0.0683 4.058967,1.08935 1.534751,1.53173 1.563344,3.93093 0.06457,5.42956 -0.881049,0.88105 -1.621906,1.11869 -4.465822,1.43224 -4.861203,0.53608 -7.730638,1.35262 -11.326569,3.22344 -4.597301,2.39179 -7.915913,5.37478 -10.93708,9.83094 -0.713831,1.05291 -1.701534,2.19711 -2.194914,2.54264 -1.398007,0.97925 -3.593299,0.79736 -4.890171,-0.40503 z m 5.19119,-33.1174 c -2.524965,-1.03341 -3.278735,-4.45466 -1.396251,-6.33714 0.735839,-0.73584 1.756459,-1.14383 3.606339,-1.44178 3.056717,-0.49218 4.971868,-1.24106 6.862566,-2.68322 1.403022,-1.07008 3.742208,-4.35985 3.742208,-5.26279 0,-0.27022 -1.32722,-0.89176 -2.949438,-1.38158 -5.02604,-1.51769 -8.287909,-3.48689 -12.114574,-7.31356 -5.31709,-5.31709 -8.254113,-11.82777 -8.304273,-18.40882 -0.01881,-2.899779 0.0627,-3.227699 1.094729,-4.262429 1.528359,-1.5313 3.931122,-1.56316 5.4223,-0.0721 0.846064,0.84606 1.125265,1.6636 1.443464,4.226559 0.725556,5.84421 2.774633,10.03119 6.586249,13.45815 4.114016,3.69888 9.70855,5.69586 14.923942,5.32719 4.171322,-0.29469 6.957994,-1.29193 10.694815,-3.82654 1.743408,-1.18251 3.628023,-2.14914 4.190124,-2.14914 2.612812,0 4.584576,2.36746 4.039287,4.85003 -0.588122,2.67871 -7.656277,7.0982 -13.54149,8.46729 -2.929375,0.68148 -2.961225,0.70324 -3.396609,2.32 -1.86449,6.92433 -8.111724,12.75311 -15.30158,14.27665 -3.079227,0.65251 -4.405129,0.70298 -5.601808,0.21317 z M 87.146345,70.908883 c -2.592554,-1.110217 -3.278108,-4.47065 -1.312923,-6.435897 2.47035,-2.470352 6.583112,-0.760542 6.583112,2.736826 0,2.678953 -2.899588,4.714173 -5.270189,3.699071 z M 142.42174,228.92598 c 6.53516,-1.38453 12.93374,-6.14842 16.25449,-12.10174 0.84086,-1.5074 1.88638,-2.93218 2.32339,-3.16606 0.43701,-0.23386 2.67199,-0.48278 4.9666,-0.55363 3.12825,-0.0958 4.71793,-0.35049 6.35413,-1.01611 8.75678,-3.56388 14.51959,-12.763 13.66582,-21.81484 -0.53984,-5.72232 -0.58498,-5.54155 2.12231,-8.49588 6.39137,-6.97504 7.88099,-14.79685 4.32764,-22.72317 l -1.04658,-2.33468 -1.91892,1.40861 c -4.07752,2.9932 -11.8392,5.46687 -15.57927,4.96522 -2.29468,-0.30786 -3.73462,-1.82769 -3.73462,-3.94209 0,-2.49757 1.37016,-3.63099 4.92992,-4.07797 3.65693,-0.45896 6.30047,-1.37148 9.02575,-3.11484 4.75881,-3.04417 8.24214,-8.05817 9.63701,-13.87197 1.83082,-7.63051 -1.09831,-15.69666 -7.50749,-20.67378 -3.81168,-2.96004 -3.91093,-3.60553 -1.45582,-9.46577 5.19922,-12.410329 -5.25953,-28.453733 -18.59436,-28.523135 -8.67294,-0.04389 -17.03878,6.532216 -19.69798,15.486616 -0.31726,1.06872 -0.74299,3.26464 -0.94583,4.87996 -0.29092,2.316549 -0.59,3.158039 -1.41612,3.984159 -1.48999,1.49005 -3.89338,1.45694 -5.42061,-0.0747 -1.04833,-1.05127 -1.11598,-1.33254 -1.0741,-4.465819 0.12916,-9.67814 6.55045,-19.848678 15.5493,-24.628435 4.34312,-2.306896 7.54385,-3.113774 12.37509,-3.119605 4.94528,-0.0061 4.71167,0.205654 3.91589,-3.544955 -0.65076,-3.067064 -2.15478,-5.823896 -4.40507,-8.074105 -2.47048,-2.470542 -5.31721,-3.913503 -8.94913,-4.536296 -4.72032,-0.809448 -8.66919,0.32541 -13.29985,3.82133 -3.8429,2.901353 -7.46848,1.675457 -7.46848,-2.525273 0,-2.941544 6.98677,-7.801235 13.12007,-9.125822 0.61509,-0.132922 1.11874,-0.401276 1.11874,-0.596897 0,-0.780043 -4.00742,-4.750163 -6.27638,-6.217892 -2.85865,-1.849128 -6.87316,-3.17528 -9.6125,-3.17528 -9.25442,0 -17.65067,6.991537 -20.06227,16.705724 -0.55928,2.253232 -0.66292,5.319291 -0.66292,19.629218 0,9.327401 0.0683,16.95893 0.15173,16.95893 0.0834,0 1.04451,-0.396887 2.13579,-0.882681 1.35474,-0.602541 2.85163,-0.893026 4.71881,-0.915348 2.46245,-0.03135 2.84624,0.079 3.85558,1.086078 0.85001,0.848449 1.12094,1.511989 1.12094,2.746039 0,2.3059 -1.33275,3.52834 -4.46181,4.0927 -2.94574,0.53106 -5.05808,1.83308 -6.35214,3.914689 l -0.9655,1.553 -0.10909,40.02429 -0.1091,40.0243 2.64071,-2.47029 c 3.21685,-3.0092 7.20278,-5.39164 11.34896,-6.78344 3.70521,-1.24384 8.95747,-2.05353 10.92547,-1.68436 3.19384,0.59941 4.51329,4.38438 2.29988,6.59773 -0.87046,0.87052 -1.62837,1.12031 -4.30933,1.42026 -6.7736,0.75785 -11.88152,3.1976 -16.12205,7.70067 -7.27865,7.72907 -8.77741,18.63668 -3.8942,28.34048 5.19232,10.31823 15.78154,15.64158 26.56827,13.35626 z m -2.38839,-7.89938 c -1.94657,-0.83352 -2.44359,-1.96893 -2.39625,-5.4742 0.18935,-14.04082 13.2456,-27.58707 26.69247,-27.69442 2.90047,-0.025 3.22745,0.0626 4.26243,1.09373 2.30169,2.29725 0.98544,6.11607 -2.28194,6.62049 -6.71886,1.03704 -9.42459,2.10964 -12.89192,5.11054 -4.64126,4.01697 -7.02013,8.68995 -7.87021,15.45966 -0.27776,2.21165 -0.60254,3.17021 -1.31437,3.88184 -1.06657,1.06588 -2.9836,1.52335 -4.20021,1.00236 z m 19.42173,-42.16196 c -0.49344,-0.34547 -1.48115,-1.48973 -2.19498,-2.54264 -3.02111,-4.45616 -6.33977,-7.43915 -10.93707,-9.83094 -3.59594,-1.87082 -6.46538,-2.68741 -11.32658,-3.22344 -2.84391,-0.31348 -3.5847,-0.55112 -4.46575,-1.43224 -1.49864,-1.49863 -1.47006,-3.89783 0.0646,-5.42956 1.02319,-1.02119 1.37725,-1.11617 4.05896,-1.08935 11.26857,0.11283 22.51125,6.32267 29.03285,16.03573 2.22075,3.30751 2.4212,5.47233 0.65803,7.10728 -1.29686,1.20252 -3.49216,1.38441 -4.89017,0.40504 z m -6.09311,-33.7331 c -7.06522,-1.59294 -13.27546,-7.46116 -15.11135,-14.2792 -0.43515,-1.61677 -0.46712,-1.63853 -3.39662,-2.32001 -5.88521,-1.36917 -12.95318,-5.78865 -13.54148,-8.46735 -0.55176,-2.51237 1.42823,-4.85005 4.10811,-4.85005 0.60631,0 2.00914,0.66011 3.15943,1.48648 9.05993,6.50888 19.48406,6.01198 26.91594,-1.28302 3.80171,-3.7318 5.54462,-7.39562 6.27074,-13.18227 0.30034,-2.391549 0.59376,-3.227259 1.42522,-4.058969 1.48955,-1.48955 3.89318,-1.45688 5.42073,0.0734 1.03266,1.03474 1.11693,1.36265 1.09473,4.262429 -0.0502,6.58105 -2.98724,13.09173 -8.30433,18.40882 -3.82661,3.82667 -7.08848,5.79586 -12.11452,7.31356 -1.62222,0.48969 -2.9495,1.11154 -2.9495,1.38158 0,0.90294 2.33925,4.19271 3.74228,5.2628 1.8907,1.44215 3.80584,2.19089 6.86256,2.68321 3.28482,0.52918 4.63254,1.72041 4.63254,4.09527 0,3.38545 -2.99208,4.65053 -8.21448,3.4731 z M 127.82866,70.908883 c -2.59261,-1.110217 -3.2781,-4.47065 -1.31297,-6.435897 2.47041,-2.470352 6.58317,-0.760542 6.58317,2.736826 0,2.678953 -2.89965,4.714173 -5.2702,3.699071 z"
       id="path1096-9-3" />
  </g>
</svg>
