<?xml version="1.0" encoding="UTF-8" standalone="no"?>
<svg
   xmlns:dc="http://purl.org/dc/elements/1.1/"
   xmlns:cc="http://creativecommons.org/ns#"
   xmlns:rdf="http://www.w3.org/1999/02/22-rdf-syntax-ns#"
   xmlns:svg="http://www.w3.org/2000/svg"
   xmlns="http://www.w3.org/2000/svg"
   xmlns:sodipodi="http://sodipodi.sourceforge.net/DTD/sodipodi-0.dtd"
   xmlns:inkscape="http://www.inkscape.org/namespaces/inkscape"
   width="50.754646mm"
   height="35.366173mm"
   viewBox="0 0 50.754646 35.366173"
   version="1.1"
   id="svg1603"
   inkscape:version="1.0.1 (3bc2e813f5, 2020-09-07)"
   sodipodi:docname="brainWhite.svg">
  <defs
     id="defs1597" />
  <sodipodi:namedview
     id="base"
     pagecolor="#ffffff"
     bordercolor="#666666"
     borderopacity="1.0"
     inkscape:pageopacity="0.0"
     inkscape:pageshadow="2"
     inkscape:zoom="2.8"
     inkscape:cx="80.225756"
     inkscape:cy="55.549982"
     inkscape:document-units="mm"
     inkscape:current-layer="layer1"
     inkscape:document-rotation="0"
     showgrid="false"
     inkscape:window-width="1624"
     inkscape:window-height="1228"
     inkscape:window-x="152"
     inkscape:window-y="1620"
     inkscape:window-maximized="0" />
  <metadata
     id="metadata1600">
    <rdf:RDF>
      <cc:Work
         rdf:about="">
        <dc:format>image/svg+xml</dc:format>
        <dc:type
           rdf:resource="http://purl.org/dc/dcmitype/StillImage" />
        <dc:title></dc:title>
      </cc:Work>
    </rdf:RDF>
  </metadata>
  <g
     inkscape:label="Layer 1"
     inkscape:groupmode="layer"
     id="layer1"
     transform="translate(-68.360831,-66.983778)">
    <path
       id="path1096-9-3-9-9"
       style="display:inline;fill:#f6f8fa;fill-opacity:1;stroke-width:0.110444"
       d="m 86.891215,66.9864 c -0.7811,0.02264 -1.55914,0.175309 -2.30017,0.469711 -1.77961,0.70722 -3.38749,2.166807 -4.24586,3.853566 -0.25817,0.507313 -0.33263,0.566419 -1.01243,0.807475 -2.49303,0.884113 -4.18336,3.216393 -4.3391,5.986619 l -0.0589,1.054643 -0.42134,0.242715 c -1.71567,0.987411 -3.13564,2.903354 -3.69875,4.990907 -0.29853,1.106883 -0.27886,3.034848 0.0422,4.06464 l 0.25157,0.80662 -0.73095,0.789869 c -1.37636,1.4866 -2.14707,3.634493 -1.99847,5.567915 0.11238,1.462103 0.45815,2.681388 1.06608,3.758568 l 0.32458,0.575273 0.0827,0.118719 1.8058,2.27631 44.485275,-0.002 1.50325,-2.27377 0.066,-0.113436 0.37647,-0.687853 c 0.50213,-0.916787 0.91694,-2.39554 1.00715,-3.591433 0.15114,-2.001962 -0.59938,-4.121358 -1.99407,-5.627728 l -0.73192,-0.789894 0.25157,-0.806595 c 0.32114,-1.029817 0.34167,-2.957782 0.0431,-4.064665 -0.56311,-2.087553 -1.98306,-4.00347 -3.69875,-4.990882 l -0.42133,-0.242715 -0.0598,-1.054667 c -0.10134,-1.801861 -0.72024,-3.206693 -1.95097,-4.426154 -0.77359,-0.766529 -1.57485,-1.27686 -2.53239,-1.61319 -0.52058,-0.182853 -0.62237,-0.271213 -0.86817,-0.754707 -0.85708,-1.685972 -2.4661,-3.146414 -4.24586,-3.853684 -2.964145,-1.177912 -6.510885,-0.09734 -8.539225,2.601003 -0.28766,0.38266 -0.56171,0.695776 -0.60869,0.695776 -0.047,0 -0.32103,-0.313116 -0.60869,-0.695776 -1.52125,-2.023693 -3.89663,-3.137316 -6.23993,-3.070714 z m 0.11787,2.16472 c 2.51235,0 4.79183,1.898084 5.44652,4.535256 0.15187,0.611718 0.17946,1.443817 0.17946,5.328672 0,2.532138 -0.0179,4.604726 -0.0404,4.604726 -0.0226,0 -0.28428,-0.108405 -0.58054,-0.2402 -0.36779,-0.163488 -0.77381,-0.241207 -1.28071,-0.247998 -0.6685,-0.0075 -0.77272,0.02012 -1.04673,0.294679 -0.23074,0.230391 -0.30435,0.410001 -0.30435,0.745023 0,0.626005 0.36174,0.958638 1.21122,1.111813 0.79969,0.14412 1.37359,0.497453 1.72491,1.06259 l 0.26212,0.421319 0.029,10.865776 0.007,2.440914 h -19.4991 c -1.18365,-0.835674 -2.05149,-2.127674 -2.40924,-3.618699 -0.49703,-2.071534 0.29808,-4.2607 2.03804,-5.611907 1.03479,-0.803577 1.06145,-0.979288 0.39495,-2.570193 -0.89526,-2.136951 -0.14779,-4.783027 1.82695,-6.468628 1.99979,-1.706956 4.67706,-1.68452 6.6894,0.05709 1.26,1.090509 1.90579,2.359647 2.13657,4.197492 0.0789,0.628872 0.16012,0.857628 0.38439,1.081907 0.40451,0.404492 1.05696,0.394683 1.47158,-0.02012 0.28477,-0.285398 0.30307,-0.361483 0.29115,-1.212093 -0.0351,-2.627414 -1.77825,-5.388282 -4.22123,-6.685917 -1.17906,-0.626256 -2.04765,-0.845479 -3.35922,-0.847039 -1.34253,-0.0019 -1.27949,0.05584 -1.06345,-0.962309 0.37924,-1.787393 1.77631,-3.10628 3.62574,-3.423419 1.28148,-0.219828 2.35367,0.08803 3.61079,1.03706 1.04326,0.787631 2.02749,0.455199 2.02749,-0.685211 0,-0.798547 -1.89735,-2.117384 -3.5624,-2.47698 -0.16704,-0.03597 -0.30347,-0.109662 -0.30347,-0.162733 0,-0.211778 1.08783,-1.28951 1.7038,-1.687966 0.77606,-0.502005 1.86611,-0.862004 2.60979,-0.862004 z m 13.461495,0 c 0.74367,0 1.83374,0.360023 2.60979,0.862029 0.61598,0.398456 1.7038,1.476187 1.7038,1.687966 0,0.05307 -0.13735,0.125759 -0.30434,0.161726 -1.66505,0.359596 -3.56153,1.67929 -3.56153,2.47786 0,1.140385 0.98423,1.472842 2.02749,0.685212 1.25712,-0.94908 2.32933,-1.256813 3.61079,-1.037061 0.98599,0.16902 1.7588,0.560761 2.42948,1.231435 0.61089,0.610888 1.0196,1.359358 1.19626,2.191985 0.21606,1.018222 0.27909,0.960624 -1.06344,0.962309 -1.31157,0.0019 -2.18016,0.220834 -3.35922,0.847064 -2.44299,1.297585 -4.18617,4.058478 -4.22123,6.685891 -0.0116,0.85061 0.006,0.926695 0.29115,1.212093 0.4146,0.415785 1.06708,0.424739 1.47158,0.02012 0.22425,-0.224354 0.3054,-0.452155 0.38438,-1.081052 0.0551,-0.438522 0.17071,-1.034545 0.25686,-1.324672 0.72191,-2.430927 2.99262,-4.216431 5.34713,-4.204535 3.6201,0.01761 6.45953,4.374058 5.04806,7.743199 -0.6665,1.590905 -0.63896,1.766616 0.39583,2.570193 1.73994,1.351182 2.53507,3.540399 2.03804,5.611906 -0.35778,1.491203 -1.22624,2.783028 -2.41012,3.618702 H 94.863105 l 0.006,-2.440914 0.0299,-10.865778 0.26211,-0.421344 c 0.3513,-0.565112 0.92521,-0.919275 1.72491,-1.063446 0.84947,-0.153174 1.21122,-0.484953 1.21122,-1.110932 0,-0.335023 -0.0736,-0.514707 -0.30434,-0.745023 -0.27402,-0.2734 -0.37824,-0.304061 -1.04674,-0.295559 -0.5069,0.005 -0.9138,0.08526 -1.28159,0.249003 -0.29625,0.131796 -0.55702,0.239194 -0.57965,0.239194 -0.0226,0 -0.0413,-2.071682 -0.0413,-4.60387 0,-3.884805 0.0285,-4.716954 0.18034,-5.328647 0.65472,-2.637196 2.93419,-4.535256 5.446555,-4.535256 z m -12.359345,7.008714 c -0.22443,0.02264 -0.44822,0.121987 -0.63683,0.3105 -0.53351,0.533522 -0.34758,1.446383 0.35624,1.747778 0.64356,0.275589 1.43112,-0.277224 1.43112,-1.004515 0,-0.593409 -0.43627,-0.997171 -0.92711,-1.052883 -0.0736,-0.0075 -0.1486,-0.01006 -0.2234,-9.26e-4 z m 11.04434,0 c -0.22442,0.02264 -0.44821,0.121987 -0.63683,0.3105 -0.53348,0.533522 -0.34759,1.446383 0.35624,1.747778 0.64354,0.275589 1.431115,-0.277224 1.431115,-1.004515 0,-0.593409 -0.436255,-0.997171 -0.927105,-1.052883 -0.0736,-0.0075 -0.14862,-0.01006 -0.22339,-9.26e-4 z m -20.88362,9.162871 c -0.26554,0.0025 -0.5323,0.109662 -0.73975,0.317542 -0.28017,0.280896 -0.30242,0.370336 -0.29731,1.157564 0.0136,1.786586 0.81096,3.554459 2.25443,4.997924 1.03885,1.038847 1.9244,1.573249 3.28885,1.98526 0.4404,0.133054 0.80045,0.301371 0.80045,0.374714 0,0.245229 -0.63506,1.137994 -1.01595,1.428499 -0.51328,0.391514 -1.03318,0.595569 -1.86301,0.729178 -0.5022,0.08099 -0.77923,0.191656 -0.979,0.391438 -0.51105,0.511035 -0.30637,1.439087 0.37911,1.71963 0.32487,0.133054 0.68491,0.119975 1.52084,-0.05709 1.95188,-0.413623 3.64822,-1.996631 4.15438,-3.876405 0.11822,-0.438949 0.12657,-0.444834 0.92184,-0.629825 1.59769,-0.371694 3.5162,-1.571212 3.67587,-2.298428 0.14804,-0.673944 -0.38667,-1.316775 -1.09599,-1.316775 -0.1526,0 -0.66492,0.262183 -1.13821,0.583196 -1.01446,0.68808 -1.77028,0.958814 -2.90271,1.038822 -1.41585,0.100105 -2.9346,-0.441918 -4.05147,-1.44608 -1.03476,-0.930342 -1.59126,-2.066451 -1.78823,-3.653005 -0.0864,-0.695801 -0.16263,-0.918219 -0.39231,-1.147905 -0.2024,-0.202473 -0.46629,-0.301697 -0.73183,-0.298176 z m 30.935775,9.26e-4 c -0.26551,-0.0025 -0.52965,0.09507 -0.73184,0.297294 -0.22571,0.225864 -0.3055,0.45203 -0.38702,1.101274 -0.19712,1.570935 -0.67085,2.566017 -1.70293,3.579134 -2.01757,1.980406 -4.84732,2.115321 -7.306885,0.348303 -0.31228,-0.224355 -0.69302,-0.403738 -0.85762,-0.403738 -0.72753,0 -1.26513,0.634732 -1.11534,1.316775 0.15972,0.727216 2.07906,1.926707 3.676755,2.298428 0.79529,0.185115 0.8037,0.190899 0.92182,0.629777 0.49841,1.850948 2.18445,3.443991 4.1025,3.876453 1.41776,0.319629 2.2298,-0.02516 2.2298,-0.942944 0,-0.644742 -0.36608,-0.96729 -1.25784,-1.110959 -0.82983,-0.133553 -1.34973,-0.337687 -1.86301,-0.729175 -0.38088,-0.290505 -1.01595,-1.183371 -1.01595,-1.428499 0,-0.07344 0.36093,-0.24171 0.80133,-0.374714 1.36445,-0.412011 2.25001,-0.947293 3.28885,-1.98614 1.44347,-1.443465 2.24082,-3.210458 2.25443,-4.997044 0.006,-0.787228 -0.0171,-0.876668 -0.2973,-1.157564 -0.20736,-0.207754 -0.47424,-0.313065 -0.73975,-0.316661 z"
       sodipodi:nodetypes="sssscccscccscccccccccccsscccssssssssssssscssscccccssscsssccscssssssssssscssssscsssssccsssccccccscccsscssssssssssssscccsssssssssscsscssscsscssssscssssscssss" />
  </g>
</svg>
