<?xml version="1.0" encoding="UTF-8" standalone="no"?>
<svg
   xmlns:dc="http://purl.org/dc/elements/1.1/"
   xmlns:cc="http://creativecommons.org/ns#"
   xmlns:rdf="http://www.w3.org/1999/02/22-rdf-syntax-ns#"
   xmlns:svg="http://www.w3.org/2000/svg"
   xmlns="http://www.w3.org/2000/svg"
   xmlns:sodipodi="http://sodipodi.sourceforge.net/DTD/sodipodi-0.dtd"
   xmlns:inkscape="http://www.inkscape.org/namespaces/inkscape"
   width="629.59479mm"
   height="87.898575mm"
   viewBox="0 0 629.59479 87.898578"
   version="1.1"
   id="svg247"
   inkscape:version="1.0.1 (3bc2e813f5, 2020-09-07)"
   sodipodi:docname="logo.svg"
   inkscape:export-filename="C:\Users\victo\OneDrive\Documents\Wits\Year 4\ELEN4010\Group Project\2021-001-project\public\assets\logo.png"
   inkscape:export-xdpi="51264.199"
   inkscape:export-ydpi="51264.199">
  <defs
     id="defs241">
    <clipPath
       clipPathUnits="userSpaceOnUse"
       id="clipPath1077">
      <path
         style="display:inline;fill:none;fill-opacity:1;stroke:#000000;stroke-width:0.264583px;stroke-linecap:butt;stroke-linejoin:miter;stroke-opacity:1"
         d="m 91.092869,212.90311 2.15423,-2.58966 2.131319,-2.54383 c 0,0 2.058247,-2.14602 2.612578,-2.42924 0.554329,-0.28323 2.475084,-1.78756 2.475084,-1.78756 l 2.06256,-1.00837 3.13969,-1.5813 2.56674,-1.10003 2.36049,-0.68752 2.42925,-0.5271 4.19388,-0.18334 4.72098,0.0229 c 0,0 2.93342,0.3896 3.85012,0.68752 0.91669,0.29793 2.45216,0.80211 2.45216,0.80211 l 5.82102,2.75009 2.08548,1.16878 2.97926,2.38341 c 0,0 1.7188,1.46671 2.31465,2.38341 0.59586,0.9167 2.3605,3.07093 2.3605,3.07093 l 2.03964,3.02509 c 0,0 -0.57293,-0.77919 0.34376,0.20626 0.0688,0.29795 1.3063,3.68972 1.3063,3.68972 l 1.48963,5.68351 0.71044,4.81265 c 0,0 -0.22918,3.75845 -0.22918,3.91887 0,0.16043 -1.44379,6.53146 -1.44379,6.53146 l -2.06257,5.47726 -2.03965,2.93342 -5.22516,6.07311 c 0,0 -4.30847,3.04801 -4.44597,3.09385 -0.13751,0.0458 -1.74172,0.84794 -1.74172,0.84794 l 1.51254,3.50636 c 0,0 0.68752,1.67297 0.68752,2.52091 0,0.84795 -0.0917,1.94798 -0.0917,1.94798 0,0 -0.27501,0.89379 -0.61877,0.93959 -0.34377,0.0458 -1.10004,0.27501 -1.12296,0.18336 -0.0229,-0.0917 -1.1917,0 -2.06256,-2.36051 -0.87086,-2.36047 -0.3896,-1.7417 -0.96253,-4.33137 -0.57294,-2.58966 -0.34376,-1.44379 -0.34376,-1.44379 l -1.83339,0.6646 c 0,0 -3.46053,1.21462 -5.47726,1.39796 -2.01673,0.18334 -8.50235,0.36668 -10.77117,-0.25209 -2.26882,-0.61877 -8.52527,-2.72717 -12.971245,-5.95852 -4.445966,-3.23135 -4.193876,-4.05638 -4.927238,-4.97307 -0.733359,-0.9167 -4.193879,-5.88977 -4.193879,-5.88977 l -1.879229,-5.47725 -1.12295,-5.6606 c 0,0 -0.25209,-4.26263 -0.0917,-6.23353 0.160422,-1.97089 1.489631,-6.14186 1.512552,-6.23353 0.02291,-0.0917 1.535459,-4.62931 1.581298,-4.78973 0.0458,-0.16042 1.764641,-2.68134 1.764641,-2.68134 z"
         id="path1079" />
    </clipPath>
    <rect
       x="16.30344"
       y="66.817383"
       width="185.48505"
       height="61.471992"
       id="rect862-6" />
    <rect
       x="16.30344"
       y="66.817383"
       width="185.48505"
       height="61.471992"
       id="rect241" />
    <rect
       x="16.30344"
       y="66.817383"
       width="185.48505"
       height="61.471992"
       id="rect862-6-7" />
    <rect
       x="16.30344"
       y="66.817383"
       width="185.48505"
       height="61.471992"
       id="rect255" />
  </defs>
  <sodipodi:namedview
     id="base"
     pagecolor="#ffffff"
     bordercolor="#666666"
     borderopacity="1.0"
     inkscape:pageopacity="0.0"
     inkscape:pageshadow="2"
     inkscape:zoom="0.35"
     inkscape:cx="1150.3786"
     inkscape:cy="-75.373285"
     inkscape:document-units="mm"
     inkscape:current-layer="layer2"
     inkscape:document-rotation="0"
     showgrid="false"
     inkscape:window-width="1624"
     inkscape:window-height="1080"
     inkscape:window-x="228"
     inkscape:window-y="1620"
     inkscape:window-maximized="0" />
  <metadata
     id="metadata244">
    <rdf:RDF>
      <cc:Work
         rdf:about="">
        <dc:format>image/svg+xml</dc:format>
        <dc:type
           rdf:resource="http://purl.org/dc/dcmitype/StillImage" />
        <dc:title></dc:title>
      </cc:Work>
    </rdf:RDF>
  </metadata>
  <g
     inkscape:label="Layer 1"
     inkscape:groupmode="layer"
     id="layer1"
     transform="translate(209.90564,-73.304517)">
    <path
       id="path1096-9-4"
       style="display:inline;fill:#182224;fill-opacity:1;stroke-width:0.183377"
       d="m 415.4468,97.153356 c -0.23618,-1.253888 -0.68767,-2.463887 -1.36544,-3.572135 -1.62751,-2.661412 -4.46159,-4.82195 -7.48243,-5.705441 -0.90859,-0.265439 -1.02562,-0.36831 -1.59904,-1.39364 -2.103,-3.76005 -6.40643,-5.794333 -11.04875,-5.221759 l -1.76866,0.21873 -0.5107,-0.607678 c -2.07677,-2.474952 -5.62141,-4.197956 -9.23297,-4.48572 -1.91515,-0.15234 -5.11317,0.453864 -6.74251,1.278424 l -1.27632,0.645882 -1.49813,-0.944625 c -2.30781,-1.455761 -5.24459,-2.11019 -7.97631,-1.858926 l 0.56195,3.564184 c 2.4165,-0.132981 4.83957,0.681097 6.70611,2.351903 1.59821,1.430855 1.89543,1.421878 4.36927,-0.126945 3.32286,-2.080278 7.91081,-1.661255 11.21363,1.024055 3.34461,2.719457 3.98662,7.045307 1.60452,10.810641 -1.49144,2.357636 -3.43565,3.778663 -6.43035,4.69768 -1.02484,0.314375 -1.38285,0.513333 -1.69844,0.941865 -0.56928,0.773045 -0.38916,1.823209 0.40775,2.368689 0.54661,0.37475 0.67759,0.38145 2.08794,0.10927 4.35637,-0.83808 8.50038,-4.472228 10.03514,-8.800433 0.74057,-2.088962 0.88384,-3.555799 0.5528,-5.672756 -0.33818,-2.167042 -0.41847,-2.048098 1.32847,-2.002341 3.0661,0.08245 5.61278,1.942569 6.60992,4.832697 0.69108,2.002589 0.45271,3.822886 -0.80629,6.133683 -1.0434,1.917813 -0.24027,3.407154 1.65412,3.067997 1.32671,-0.237264 3.03709,-3.690385 3.21113,-6.484236 0.0188,-0.280265 0.10309,-0.52208 0.19123,-0.537891 0.35185,-0.06326 2.41925,1.37196 3.23787,2.247446 1.03147,1.103044 1.90685,2.754937 2.0959,3.955053 0.63877,4.054241 -1.93495,8.297221 -6.15007,10.138031 -0.97787,0.42698 -2.35325,0.71903 -8.80793,1.87445 -4.20718,0.75316 -7.65407,1.33912 -7.6598,1.30259 -0.008,-0.0395 0.1068,-0.48931 0.25049,-1.00656 0.17906,-0.64216 0.20609,-1.32068 0.089,-2.14065 -0.15691,-1.08115 -0.23254,-1.24037 -0.75723,-1.60121 -0.44158,-0.30398 -0.75861,-0.3692 -1.31519,-0.26969 -1.04026,0.18616 -1.49932,0.86856 -1.53785,2.28495 -0.0313,1.33354 -0.47916,2.36337 -1.32848,3.0984 l -0.6334,0.54829 -12.92706,2.34913 0.57893,3.67493 12.93784,-2.28098 0.76821,0.29737 c 1.0282,0.39893 1.76093,1.21847 2.20389,2.46609 0.47033,1.32524 1.11388,1.81173 2.1541,1.62558 0.55649,-0.0995 0.83644,-0.27168 1.16041,-0.71274 0.38429,-0.52344 0.40856,-0.7008 0.22492,-1.77706 -0.13897,-0.81616 -0.37435,-1.44926 -0.73953,-1.9941 -0.29406,-0.43878 -0.53911,-0.82766 -0.54485,-0.86418 -0.008,-0.0394 3.43148,-0.68296 7.63874,-1.43608 6.45462,-1.15545 7.84447,-1.35681 8.89935,-1.2939 4.54814,0.27231 8.28152,3.38602 8.92043,7.44026 0.18887,1.20008 -0.13387,3.06469 -0.76875,4.4664 -0.50524,1.11256 -2.01919,3.18993 -2.37093,3.25292 -0.0881,0.0155 -0.24402,-0.18414 -0.34591,-0.44295 -1.02082,-2.57997 -3.69587,-5.24783 -5.02268,-5.01031 -1.89477,0.33916 -2.19689,2.02636 -0.62286,3.4756 1.89667,1.74635 2.68058,3.38509 2.64135,5.51834 -0.0308,1.64132 -0.48492,3.00498 -1.42817,4.28676 -0.85968,1.1675 -1.99951,2.04823 -3.33801,2.58097 -1.63673,0.65142 -1.52488,0.73746 -1.86903,-1.42848 -0.33664,-2.11595 -0.92159,-3.45391 -2.2619,-5.17031 -2.77728,-3.55631 -7.8078,-5.54822 -12.18219,-4.82335 -1.4162,0.23362 -1.53794,0.28647 -1.93954,0.83178 -0.58546,0.79275 -0.43462,1.8483 0.3402,2.38075 0.4298,0.29545 0.82898,0.35847 1.894,0.29897 0.74252,-0.0419 1.76375,-0.0323 2.26757,0.022 4.2226,0.44175 7.76582,3.57531 8.34418,7.37847 0.8894,5.84745 -5.62466,11.72481 -11.58143,10.44919 -2.81275,-0.6024 -3.09643,-0.50733 -4.16845,1.40151 -1.25182,2.22897 -3.29249,3.84194 -5.61708,4.55787 l 0.56042,3.55712 c 2.69232,-0.72089 5.22338,-2.33149 6.97005,-4.52569 l 1.1263,-1.41594 1.40403,0.16588 c 1.79271,0.21216 5.00129,-0.32785 6.7644,-1.13941 3.32528,-1.5296 6.14719,-4.39229 7.35145,-7.45462 l 0.29702,-0.75066 1.7385,-0.41038 c 2.9681,-0.69937 5.14328,-2.11576 6.85649,-4.46452 1.0768,-1.47633 1.72087,-2.92113 2.03636,-4.56635 0.17128,-0.89446 0.29187,-1.08501 1.03309,-1.62546 2.58301,-1.88445 4.60041,-4.91534 5.32291,-7.99774 1.20322,-5.13362 -1.49446,-10.53708 -6.49348,-13.00771 -0.70893,-0.35026 -1.29863,-0.69806 -1.31061,-0.77387 -0.0112,-0.0767 0.43854,-0.61118 1.00123,-1.1892 2.97552,-3.05677 4.2217,-7.22113 3.5151,-10.982793 z m -14.87591,5.058004 c -0.0202,-0.48533 -0.25148,-0.96509 -0.73316,-1.29616 -1.02213,-0.70224 -2.49167,-0.13053 -2.81349,1.0947 -0.29395,1.12048 0.82473,2.22699 2.03302,2.01066 0.98592,-0.1764 1.54585,-1.00058 1.51363,-1.8092 z m 2.80864,17.82241 c -0.0202,-0.48527 -0.25147,-0.96507 -0.73324,-1.29611 -1.02206,-0.70224 -2.49153,-0.13043 -2.81326,1.09466 -0.29394,1.12049 0.82459,2.22698 2.03291,2.01069 0.98597,-0.17639 1.5459,-1.00057 1.51359,-1.80924 z m -20.5903,-31.335768 c -0.073,-0.427559 -0.31727,-0.826362 -0.71577,-1.09932 -0.53797,-0.36845 -0.69219,-0.37783 -1.9989,-0.135338 -2.96496,0.553391 -5.69804,2.365639 -7.72916,5.124275 -1.46181,1.985417 -2.12603,3.573644 -2.46356,5.898034 -0.10832,0.750297 -0.29684,1.381303 -0.41908,1.403068 -0.12834,0.02348 -0.39696,-0.05252 -0.70036,-0.161938 l 0.59778,3.792697 c 0.0349,0.002 0.0691,0.0105 0.10363,0.0112 0.75931,0.0606 0.77147,0.0736 1.28114,1.3017 1.02376,2.4677 3.50472,5.20687 4.75356,5.24822 1.15746,0.0376 2.08951,-1.01564 1.9091,-2.16027 -0.0397,-0.24615 -0.60461,-0.99499 -1.2584,-1.66328 -1.40128,-1.4324 -2.04349,-2.57298 -2.4644,-4.37661 -0.52615,-2.25505 -0.0117,-4.867049 1.37234,-6.967995 1.28255,-1.946528 3.03031,-3.181321 5.6163,-3.971071 1.13401,-0.346106 1.48275,-0.535178 1.80597,-0.9742 0.28537,-0.386792 0.3832,-0.842157 0.3089,-1.2697 z m 7.86734,49.921548 c -0.0598,-0.42988 -0.29412,-0.82757 -0.68181,-1.0937 -0.43245,-0.29724 -0.82847,-0.35715 -1.92789,-0.29534 -2.66032,0.14876 -4.43412,-0.31921 -6.37982,-1.68348 -3.80357,-2.66681 -4.7473,-7.19312 -2.43695,-11.6877 0.29319,-0.57064 0.49443,-1.23839 0.45267,-1.50401 -0.18464,-1.17404 -1.37632,-1.85282 -2.47146,-1.4082 -1.16757,0.47393 -2.6727,3.9266 -2.88389,6.6154 -0.10698,1.33831 -0.11204,1.35518 -0.81179,1.67632 -0.0308,0.0122 -0.063,0.0336 -0.0944,0.0478 l 0.59783,3.79413 c 0.25325,-0.20938 0.48313,-0.3756 0.61195,-0.39863 0.12136,-0.0237 0.49323,0.5091 0.82608,1.18022 1.03157,2.0793 2.14621,3.34915 4.13634,4.71658 2.76546,1.90003 5.9041,2.66115 8.87589,2.15177 1.30981,-0.22321 1.45234,-0.2883 1.84776,-0.82404 0.29255,-0.39624 0.40141,-0.8573 0.34024,-1.2868 z"
       inkscape:transform-center-x="0.13192851"
       inkscape:transform-center-y="2.5494349" />
  </g>
  <g
     inkscape:groupmode="layer"
     id="layer2"
     inkscape:label="Layer 2">
    <text
       xml:space="preserve"
       id="text860-8"
       style="font-style:normal;font-weight:normal;font-size:10.5833px;line-height:1.05;font-family:sans-serif;letter-spacing:-2.36008px;white-space:pre;shape-inside:url(#rect862-6-7);display:inline;fill:#e22c38;fill-opacity:1;stroke:none;"
       transform="matrix(4.3639015,0,0,4.3639015,-74.02545,-293.59868)"><tspan
         x="16.302734"
         y="86.913141"><tspan
           style="font-style:normal;font-variant:normal;font-weight:normal;font-stretch:normal;font-size:25.4px;font-family:Futura-Bold;-inkscape-font-specification:Futura-Bold;letter-spacing:0px;fill:#e22c38;fill-opacity:1">CRAMJAM</tspan></tspan></text>
  </g>
</svg>
