<?xml version="1.0" encoding="UTF-8" standalone="no"?>
<svg
   xmlns:dc="http://purl.org/dc/elements/1.1/"
   xmlns:cc="http://creativecommons.org/ns#"
   xmlns:rdf="http://www.w3.org/1999/02/22-rdf-syntax-ns#"
   xmlns:svg="http://www.w3.org/2000/svg"
   xmlns="http://www.w3.org/2000/svg"
   xmlns:sodipodi="http://sodipodi.sourceforge.net/DTD/sodipodi-0.dtd"
   xmlns:inkscape="http://www.inkscape.org/namespaces/inkscape"
   width="577.336mm"
   height="117.66636mm"
   viewBox="0 0 577.33601 117.66636"
   version="1.1"
   id="svg247"
   inkscape:version="1.0.1 (3bc2e813f5, 2020-09-07)"
   sodipodi:docname="logo2.svg"
   inkscape:export-filename="C:\Users\victo\OneDrive\Documents\Wits\Year 4\ELEN4010\Group Project\2021-001-project\public\assets\logo2.png"
   inkscape:export-xdpi="499.94318"
   inkscape:export-ydpi="499.94318">
  <defs
     id="defs241">
    <clipPath
       clipPathUnits="userSpaceOnUse"
       id="clipPath1077">
      <path
         style="display:inline;fill:none;fill-opacity:1;stroke:#000000;stroke-width:0.264583px;stroke-linecap:butt;stroke-linejoin:miter;stroke-opacity:1"
         d="m 91.092869,212.90311 2.15423,-2.58966 2.131319,-2.54383 c 0,0 2.058247,-2.14602 2.612578,-2.42924 0.554329,-0.28323 2.475084,-1.78756 2.475084,-1.78756 l 2.06256,-1.00837 3.13969,-1.5813 2.56674,-1.10003 2.36049,-0.68752 2.42925,-0.5271 4.19388,-0.18334 4.72098,0.0229 c 0,0 2.93342,0.3896 3.85012,0.68752 0.91669,0.29793 2.45216,0.80211 2.45216,0.80211 l 5.82102,2.75009 2.08548,1.16878 2.97926,2.38341 c 0,0 1.7188,1.46671 2.31465,2.38341 0.59586,0.9167 2.3605,3.07093 2.3605,3.07093 l 2.03964,3.02509 c 0,0 -0.57293,-0.77919 0.34376,0.20626 0.0688,0.29795 1.3063,3.68972 1.3063,3.68972 l 1.48963,5.68351 0.71044,4.81265 c 0,0 -0.22918,3.75845 -0.22918,3.91887 0,0.16043 -1.44379,6.53146 -1.44379,6.53146 l -2.06257,5.47726 -2.03965,2.93342 -5.22516,6.07311 c 0,0 -4.30847,3.04801 -4.44597,3.09385 -0.13751,0.0458 -1.74172,0.84794 -1.74172,0.84794 l 1.51254,3.50636 c 0,0 0.68752,1.67297 0.68752,2.52091 0,0.84795 -0.0917,1.94798 -0.0917,1.94798 0,0 -0.27501,0.89379 -0.61877,0.93959 -0.34377,0.0458 -1.10004,0.27501 -1.12296,0.18336 -0.0229,-0.0917 -1.1917,0 -2.06256,-2.36051 -0.87086,-2.36047 -0.3896,-1.7417 -0.96253,-4.33137 -0.57294,-2.58966 -0.34376,-1.44379 -0.34376,-1.44379 l -1.83339,0.6646 c 0,0 -3.46053,1.21462 -5.47726,1.39796 -2.01673,0.18334 -8.50235,0.36668 -10.77117,-0.25209 -2.26882,-0.61877 -8.52527,-2.72717 -12.971245,-5.95852 -4.445966,-3.23135 -4.193876,-4.05638 -4.927238,-4.97307 -0.733359,-0.9167 -4.193879,-5.88977 -4.193879,-5.88977 l -1.879229,-5.47725 -1.12295,-5.6606 c 0,0 -0.25209,-4.26263 -0.0917,-6.23353 0.160422,-1.97089 1.489631,-6.14186 1.512552,-6.23353 0.02291,-0.0917 1.535459,-4.62931 1.581298,-4.78973 0.0458,-0.16042 1.764641,-2.68134 1.764641,-2.68134 z"
         id="path1079" />
    </clipPath>
    <rect
       x="16.30344"
       y="66.817383"
       width="185.48505"
       height="61.471992"
       id="rect862-6" />
    <rect
       x="16.30344"
       y="66.817383"
       width="185.48505"
       height="61.471992"
       id="rect241" />
    <rect
       x="16.30344"
       y="66.817383"
       width="185.48505"
       height="61.471992"
       id="rect862-6-7" />
    <rect
       x="16.30344"
       y="66.817383"
       width="185.48505"
       height="61.471992"
       id="rect255" />
    <rect
       x="44.901279"
       y="11.759859"
       width="152.87817"
       height="46.504898"
       id="rect1387" />
    <rect
       x="44.901279"
       y="11.759859"
       width="152.87817"
       height="46.504898"
       id="rect270" />
  </defs>
  <sodipodi:namedview
     id="base"
     pagecolor="#ffffff"
     bordercolor="#666666"
     borderopacity="1.0"
     inkscape:pageopacity="0.0"
     inkscape:pageshadow="2"
     inkscape:zoom="0.24748737"
     inkscape:cx="1157.1072"
     inkscape:cy="-160.26139"
     inkscape:document-units="mm"
     inkscape:current-layer="layer3"
     inkscape:document-rotation="0"
     showgrid="false"
     inkscape:window-width="1624"
     inkscape:window-height="1080"
     inkscape:window-x="228"
     inkscape:window-y="1620"
     inkscape:window-maximized="0" />
  <metadata
     id="metadata244">
    <rdf:RDF>
      <cc:Work
         rdf:about="">
        <dc:format>image/svg+xml</dc:format>
        <dc:type
           rdf:resource="http://purl.org/dc/dcmitype/StillImage" />
        <dc:title></dc:title>
      </cc:Work>
    </rdf:RDF>
  </metadata>
  <g
     inkscape:label="Layer 1"
     inkscape:groupmode="layer"
     id="layer1"
     transform="translate(207.8051,-60.596728)"
     style="display:none">
    <path
       id="path1096-9-4"
       style="display:inline;fill:#182224;fill-opacity:1;stroke-width:0.183377"
       d="m 415.4468,97.153356 c -0.23618,-1.253888 -0.68767,-2.463887 -1.36544,-3.572135 -1.62751,-2.661412 -4.46159,-4.82195 -7.48243,-5.705441 -0.90859,-0.265439 -1.02562,-0.36831 -1.59904,-1.39364 -2.103,-3.76005 -6.40643,-5.794333 -11.04875,-5.221759 l -1.76866,0.21873 -0.5107,-0.607678 c -2.07677,-2.474952 -5.62141,-4.197956 -9.23297,-4.48572 -1.91515,-0.15234 -5.11317,0.453864 -6.74251,1.278424 l -1.27632,0.645882 -1.49813,-0.944625 c -2.30781,-1.455761 -5.24459,-2.11019 -7.97631,-1.858926 l 0.56195,3.564184 c 2.4165,-0.132981 4.83957,0.681097 6.70611,2.351903 1.59821,1.430855 1.89543,1.421878 4.36927,-0.126945 3.32286,-2.080278 7.91081,-1.661255 11.21363,1.024055 3.34461,2.719457 3.98662,7.045307 1.60452,10.810641 -1.49144,2.357636 -3.43565,3.778663 -6.43035,4.69768 -1.02484,0.314375 -1.38285,0.513333 -1.69844,0.941865 -0.56928,0.773045 -0.38916,1.823209 0.40775,2.368689 0.54661,0.37475 0.67759,0.38145 2.08794,0.10927 4.35637,-0.83808 8.50038,-4.472228 10.03514,-8.800433 0.74057,-2.088962 0.88384,-3.555799 0.5528,-5.672756 -0.33818,-2.167042 -0.41847,-2.048098 1.32847,-2.002341 3.0661,0.08245 5.61278,1.942569 6.60992,4.832697 0.69108,2.002589 0.45271,3.822886 -0.80629,6.133683 -1.0434,1.917813 -0.24027,3.407154 1.65412,3.067997 1.32671,-0.237264 3.03709,-3.690385 3.21113,-6.484236 0.0188,-0.280265 0.10309,-0.52208 0.19123,-0.537891 0.35185,-0.06326 2.41925,1.37196 3.23787,2.247446 1.03147,1.103044 1.90685,2.754937 2.0959,3.955053 0.63877,4.054241 -1.93495,8.297221 -6.15007,10.138031 -0.97787,0.42698 -2.35325,0.71903 -8.80793,1.87445 -4.20718,0.75316 -7.65407,1.33912 -7.6598,1.30259 -0.008,-0.0395 0.1068,-0.48931 0.25049,-1.00656 0.17906,-0.64216 0.20609,-1.32068 0.089,-2.14065 -0.15691,-1.08115 -0.23254,-1.24037 -0.75723,-1.60121 -0.44158,-0.30398 -0.75861,-0.3692 -1.31519,-0.26969 -1.04026,0.18616 -1.49932,0.86856 -1.53785,2.28495 -0.0313,1.33354 -0.47916,2.36337 -1.32848,3.0984 l -0.6334,0.54829 -12.92706,2.34913 0.57893,3.67493 12.93784,-2.28098 0.76821,0.29737 c 1.0282,0.39893 1.76093,1.21847 2.20389,2.46609 0.47033,1.32524 1.11388,1.81173 2.1541,1.62558 0.55649,-0.0995 0.83644,-0.27168 1.16041,-0.71274 0.38429,-0.52344 0.40856,-0.7008 0.22492,-1.77706 -0.13897,-0.81616 -0.37435,-1.44926 -0.73953,-1.9941 -0.29406,-0.43878 -0.53911,-0.82766 -0.54485,-0.86418 -0.008,-0.0394 3.43148,-0.68296 7.63874,-1.43608 6.45462,-1.15545 7.84447,-1.35681 8.89935,-1.2939 4.54814,0.27231 8.28152,3.38602 8.92043,7.44026 0.18887,1.20008 -0.13387,3.06469 -0.76875,4.4664 -0.50524,1.11256 -2.01919,3.18993 -2.37093,3.25292 -0.0881,0.0155 -0.24402,-0.18414 -0.34591,-0.44295 -1.02082,-2.57997 -3.69587,-5.24783 -5.02268,-5.01031 -1.89477,0.33916 -2.19689,2.02636 -0.62286,3.4756 1.89667,1.74635 2.68058,3.38509 2.64135,5.51834 -0.0308,1.64132 -0.48492,3.00498 -1.42817,4.28676 -0.85968,1.1675 -1.99951,2.04823 -3.33801,2.58097 -1.63673,0.65142 -1.52488,0.73746 -1.86903,-1.42848 -0.33664,-2.11595 -0.92159,-3.45391 -2.2619,-5.17031 -2.77728,-3.55631 -7.8078,-5.54822 -12.18219,-4.82335 -1.4162,0.23362 -1.53794,0.28647 -1.93954,0.83178 -0.58546,0.79275 -0.43462,1.8483 0.3402,2.38075 0.4298,0.29545 0.82898,0.35847 1.894,0.29897 0.74252,-0.0419 1.76375,-0.0323 2.26757,0.022 4.2226,0.44175 7.76582,3.57531 8.34418,7.37847 0.8894,5.84745 -5.62466,11.72481 -11.58143,10.44919 -2.81275,-0.6024 -3.09643,-0.50733 -4.16845,1.40151 -1.25182,2.22897 -3.29249,3.84194 -5.61708,4.55787 l 0.56042,3.55712 c 2.69232,-0.72089 5.22338,-2.33149 6.97005,-4.52569 l 1.1263,-1.41594 1.40403,0.16588 c 1.79271,0.21216 5.00129,-0.32785 6.7644,-1.13941 3.32528,-1.5296 6.14719,-4.39229 7.35145,-7.45462 l 0.29702,-0.75066 1.7385,-0.41038 c 2.9681,-0.69937 5.14328,-2.11576 6.85649,-4.46452 1.0768,-1.47633 1.72087,-2.92113 2.03636,-4.56635 0.17128,-0.89446 0.29187,-1.08501 1.03309,-1.62546 2.58301,-1.88445 4.60041,-4.91534 5.32291,-7.99774 1.20322,-5.13362 -1.49446,-10.53708 -6.49348,-13.00771 -0.70893,-0.35026 -1.29863,-0.69806 -1.31061,-0.77387 -0.0112,-0.0767 0.43854,-0.61118 1.00123,-1.1892 2.97552,-3.05677 4.2217,-7.22113 3.5151,-10.982793 z m -14.87591,5.058004 c -0.0202,-0.48533 -0.25148,-0.96509 -0.73316,-1.29616 -1.02213,-0.70224 -2.49167,-0.13053 -2.81349,1.0947 -0.29395,1.12048 0.82473,2.22699 2.03302,2.01066 0.98592,-0.1764 1.54585,-1.00058 1.51363,-1.8092 z m 2.80864,17.82241 c -0.0202,-0.48527 -0.25147,-0.96507 -0.73324,-1.29611 -1.02206,-0.70224 -2.49153,-0.13043 -2.81326,1.09466 -0.29394,1.12049 0.82459,2.22698 2.03291,2.01069 0.98597,-0.17639 1.5459,-1.00057 1.51359,-1.80924 z m -20.5903,-31.335768 c -0.073,-0.427559 -0.31727,-0.826362 -0.71577,-1.09932 -0.53797,-0.36845 -0.69219,-0.37783 -1.9989,-0.135338 -2.96496,0.553391 -5.69804,2.365639 -7.72916,5.124275 -1.46181,1.985417 -2.12603,3.573644 -2.46356,5.898034 -0.10832,0.750297 -0.29684,1.381303 -0.41908,1.403068 -0.12834,0.02348 -0.39696,-0.05252 -0.70036,-0.161938 l 0.59778,3.792697 c 0.0349,0.002 0.0691,0.0105 0.10363,0.0112 0.75931,0.0606 0.77147,0.0736 1.28114,1.3017 1.02376,2.4677 3.50472,5.20687 4.75356,5.24822 1.15746,0.0376 2.08951,-1.01564 1.9091,-2.16027 -0.0397,-0.24615 -0.60461,-0.99499 -1.2584,-1.66328 -1.40128,-1.4324 -2.04349,-2.57298 -2.4644,-4.37661 -0.52615,-2.25505 -0.0117,-4.867049 1.37234,-6.967995 1.28255,-1.946528 3.03031,-3.181321 5.6163,-3.971071 1.13401,-0.346106 1.48275,-0.535178 1.80597,-0.9742 0.28537,-0.386792 0.3832,-0.842157 0.3089,-1.2697 z m 7.86734,49.921548 c -0.0598,-0.42988 -0.29412,-0.82757 -0.68181,-1.0937 -0.43245,-0.29724 -0.82847,-0.35715 -1.92789,-0.29534 -2.66032,0.14876 -4.43412,-0.31921 -6.37982,-1.68348 -3.80357,-2.66681 -4.7473,-7.19312 -2.43695,-11.6877 0.29319,-0.57064 0.49443,-1.23839 0.45267,-1.50401 -0.18464,-1.17404 -1.37632,-1.85282 -2.47146,-1.4082 -1.16757,0.47393 -2.6727,3.9266 -2.88389,6.6154 -0.10698,1.33831 -0.11204,1.35518 -0.81179,1.67632 -0.0308,0.0122 -0.063,0.0336 -0.0944,0.0478 l 0.59783,3.79413 c 0.25325,-0.20938 0.48313,-0.3756 0.61195,-0.39863 0.12136,-0.0237 0.49323,0.5091 0.82608,1.18022 1.03157,2.0793 2.14621,3.34915 4.13634,4.71658 2.76546,1.90003 5.9041,2.66115 8.87589,2.15177 1.30981,-0.22321 1.45234,-0.2883 1.84776,-0.82404 0.29255,-0.39624 0.40141,-0.8573 0.34024,-1.2868 z"
       inkscape:transform-center-x="0.13192851"
       inkscape:transform-center-y="2.5494349" />
  </g>
  <g
     inkscape:groupmode="layer"
     id="layer2"
     inkscape:label="Layer 2"
     style="display:none"
     transform="translate(-2.1005387,12.707789)">
    <text
       xml:space="preserve"
       id="text860-8"
       style="font-style:normal;font-weight:normal;font-size:10.5833px;line-height:1.05;font-family:sans-serif;letter-spacing:-2.36008px;white-space:pre;shape-inside:url(#rect862-6-7);display:inline;fill:#182224;fill-opacity:1;stroke:none;"
       transform="matrix(4.3639015,0,0,4.3639015,-74.02545,-293.59868)"><tspan
         x="16.302734"
         y="86.913141"><tspan
           style="font-style:normal;font-variant:normal;font-weight:normal;font-stretch:normal;font-size:25.4px;font-family:Futura-Bold;-inkscape-font-specification:Futura-Bold;letter-spacing:0px;fill:#182224;fill-opacity:1">CRAMJAM</tspan></tspan></text>
  </g>
  <g
     inkscape:groupmode="layer"
     id="layer3"
     inkscape:label="Layer 3"
     transform="translate(-2.1005387,12.707789)"
     style="display:inline">
    <text
       xml:space="preserve"
       id="text1385"
       style="font-style:normal;font-weight:normal;font-size:10.5833px;line-height:1.25;font-family:sans-serif;letter-spacing:-1.07156px;white-space:pre;shape-inside:url(#rect1387);display:inline;fill:#182224;fill-opacity:1;stroke:none;"
       transform="matrix(5.7283655,0,0,5.7283655,-149.82851,-91.124372)"><tspan
         x="44.900391"
         y="29.300333"><tspan
           style="font-style:normal;font-variant:normal;font-weight:normal;font-stretch:normal;font-size:18.8376px;font-family:grouch;-inkscape-font-specification:grouch;letter-spacing:-2.47445px;fill:#182224;fill-opacity:1">cramjam</tspan></tspan></text>
    <path
       id="path1096-9-3-9"
       style="display:inline;fill:#182224;fill-opacity:1;stroke-width:0.235424"
       d="m 42.470907,8.7219321 c -1.665021,0.04828 -3.323514,0.3736915 -4.903124,1.00125 -3.793461,1.5075309 -7.220866,4.6188309 -9.050603,8.2143759 -0.550315,1.081403 -0.709036,1.207397 -2.158129,1.721238 -5.314206,1.8846 -8.917361,6.856166 -9.249354,12.761254 l -0.125614,2.24811 -0.898132,0.517379 c -3.657163,2.104793 -6.6840322,6.18888 -7.8843562,10.638771 -0.636373,2.35946 -0.594438,6.46917 0.08997,8.664305 l 0.536245,1.719412 -1.55812,1.68371 c -2.933879,3.168885 -4.576755,7.747397 -4.259993,11.868743 0.239531,3.116661 0.976603,5.715728 2.27249,8.011871 l 0.691885,1.226261 0.176211,0.253068 3.8493,4.852267 94.8261872,-0.0045 3.20436,-4.84684 0.14055,-0.241799 0.8025,-1.466249 c 1.07033,-1.954248 1.95456,-5.106404 2.14687,-7.655605 0.32216,-4.267441 -1.27768,-8.785209 -4.25062,-11.996233 l -1.56002,-1.683761 0.53628,-1.719358 c 0.68454,-2.195193 0.72831,-6.304899 0.0918,-8.664366 -1.2003,-4.449888 -4.22713,-8.533917 -7.884355,-10.638713 l -0.89813,-0.517379 -0.12746,-2.248161 c -0.216,-3.840904 -1.53526,-6.835489 -4.15875,-9.434934 -1.64899,-1.633952 -3.35699,-2.721788 -5.39807,-3.43872 -1.10973,-0.389779 -1.32669,-0.578129 -1.85067,-1.608756 -1.82694,-3.593367 -5.25679,-6.706489 -9.05057,-8.2141275 C 70.250987,7.2135722 62.690659,9.5169703 58.366981,15.26882 c -0.613188,0.815691 -1.197355,1.48314 -1.297496,1.48314 -0.100143,0 -0.684316,-0.667449 -1.297507,-1.48314 C 52.529266,10.955052 47.465835,8.5812185 42.470793,8.7231896 Z m 0.251227,4.6143809 c 5.355405,0 10.214415,4.046014 11.609978,9.667487 0.323727,1.303961 0.382541,3.077682 0.382541,11.358756 0,5.397588 -0.03809,9.815577 -0.0862,9.815577 -0.04828,0 -0.605972,-0.231076 -1.23749,-0.512021 -0.78399,-0.348491 -1.649476,-0.514163 -2.729993,-0.528636 -1.425003,-0.01609 -1.647155,0.04292 -2.231245,0.628153 -0.491859,0.491108 -0.648752,0.873969 -0.648752,1.588114 0,1.334405 0.771077,2.043458 2.58186,2.369966 1.704645,0.307209 2.927987,1.060386 3.676883,2.265051 l 0.558724,0.898096 0.06182,23.161815 0.01459,5.203119 H 13.109899 C 10.586805,77.470451 8.7368758,74.716388 7.9742838,71.538064 6.9148038,67.12233 8.6096878,62.45583 12.318647,59.575555 c 2.205778,-1.712926 2.26262,-2.087477 0.841881,-5.478693 -1.90836,-4.555196 -0.315036,-10.195648 3.89437,-13.788727 4.262824,-3.638598 9.969773,-3.590775 14.25934,0.121709 2.685846,2.324561 4.062433,5.029892 4.55437,8.947505 0.168293,1.340516 0.34131,1.82814 0.819374,2.306224 0.862272,0.862222 2.253039,0.841314 3.136874,-0.04292 0.607023,-0.608362 0.646023,-0.770544 0.620617,-2.583731 -0.0748,-5.600673 -3.790573,-11.485823 -8.998111,-14.2519 -2.513309,-1.334944 -4.364821,-1.802249 -7.160605,-1.805571 -2.861785,-0.0039 -2.727388,0.119026 -2.266872,-2.051291 0.808398,-3.810056 3.786431,-6.621434 7.728733,-7.29746 2.731637,-0.46859 5.017152,0.187649 7.696866,2.21063 2.223839,1.678936 4.321859,0.970314 4.321859,-1.460618 0,-1.702205 -4.044448,-4.513478 -7.59373,-5.280004 -0.356051,-0.07667 -0.646873,-0.233757 -0.646873,-0.346886 0,-0.451431 2.318846,-2.748759 3.631869,-3.598118 1.654261,-1.070093 3.977853,-1.837477 5.563109,-1.837477 z m 28.694981,0 c 1.58519,0 3.90883,0.767435 5.5631,1.837526 1.31302,0.849361 3.63186,3.146687 3.63186,3.59812 0,0.113147 -0.29277,0.268063 -0.64874,0.344743 -3.54929,0.766523 -7.59187,3.579621 -7.59187,5.281879 0,2.430883 2.09802,3.13956 4.32187,1.460624 2.67972,-2.023086 4.96527,-2.679068 7.69687,-2.210638 2.10175,0.360287 3.7491,1.195336 5.17875,2.624971 1.3022,1.30218 2.17341,2.897641 2.54998,4.672493 0.46057,2.170472 0.59493,2.047699 -2.26687,2.051285 -2.79575,0.0039 -4.6473,0.470736 -7.1606,1.805629 -5.20755,2.765976 -8.92337,8.651173 -8.99812,14.251844 -0.0247,1.813193 0.0129,1.975377 0.62063,2.583739 0.88378,0.886295 2.27461,0.905383 3.13689,0.04292 0.478,-0.47824 0.65101,-0.963828 0.81935,-2.304402 0.11737,-0.934772 0.36388,-2.205268 0.54751,-2.823715 1.53885,-5.181832 6.37916,-8.987867 11.39812,-8.962513 7.71673,0.03753 13.769295,9.323873 10.760595,16.505634 -1.420735,3.391226 -1.362025,3.765778 0.84374,5.478703 3.70893,2.88022 5.40386,7.546823 4.34436,11.962512 -0.76265,3.178691 -2.61388,5.932374 -5.13748,7.713717 H 59.464016 l 0.01266,-5.203116 0.06375,-23.16182 0.558724,-0.898143 c 0.748851,-1.20461 1.9722,-1.959559 3.67687,-2.266873 1.810751,-0.326512 2.581869,-1.033743 2.581869,-2.368102 0,-0.714142 -0.156878,-1.097162 -0.648742,-1.588107 -0.5841,-0.582789 -0.806265,-0.648151 -2.231257,-0.630028 -1.080517,0.01051 -1.947894,0.181769 -2.731878,0.530784 -0.631487,0.280936 -1.187351,0.509871 -1.235601,0.509871 -0.04828,0 -0.08815,-4.41606 -0.08815,-9.813749 0,-8.280971 0.06079,-10.054795 0.384418,-11.358705 1.39556,-5.621528 6.254547,-9.667489 11.609976,-9.667489 z M 45.071527,28.276298 c -0.478401,0.04828 -0.95544,0.260023 -1.35749,0.661875 -1.137238,1.137265 -0.740911,3.083146 0.759365,3.725614 1.371841,0.587456 3.050627,-0.590943 3.050627,-2.141259 0,-1.264923 -0.929974,-2.125599 -1.976255,-2.244351 -0.156942,-0.01609 -0.316753,-0.02146 -0.476204,-0.002 z m 23.542455,0 c -0.478393,0.04828 -0.955416,0.260023 -1.357488,0.661875 -1.1372,1.137265 -0.740941,3.083146 0.759361,3.725614 1.3718,0.587456 3.05062,-0.590943 3.05062,-2.141259 0,-1.264923 -0.929941,-2.125599 -1.976253,-2.244351 -0.156963,-0.01609 -0.31679,-0.02146 -0.476195,-0.002 z M 24.097809,47.808154 c -0.566022,0.0054 -1.134647,0.233755 -1.576864,0.676875 -0.597228,0.598773 -0.644639,0.789421 -0.633749,2.467496 0.02895,3.808342 1.728673,7.576791 4.805609,10.653725 2.214458,2.214445 4.102114,3.353591 7.010617,4.231843 0.938762,0.283618 1.706247,0.642405 1.706247,0.798748 0,0.522744 -1.353711,2.425787 -2.165615,3.045035 -1.094135,0.834564 -2.202365,1.269535 -3.971247,1.554339 -1.070507,0.17265 -1.661049,0.408546 -2.086876,0.834405 -1.089369,1.089328 -0.653049,3.067596 0.808125,3.665615 0.692509,0.283621 1.459966,0.255749 3.241873,-0.121708 4.160687,-0.881696 7.776645,-4.256082 8.85561,-8.263114 0.251986,-0.93563 0.269793,-0.948176 1.965001,-1.34251 3.405686,-0.792315 7.495255,-3.349237 7.835599,-4.899394 0.315578,-1.436594 -0.824234,-2.806875 -2.336243,-2.806875 -0.325279,0 -1.417349,0.558876 -2.42624,1.243156 -2.162452,1.466732 -3.773595,2.043841 -6.187498,2.214392 -3.018082,0.213376 -6.255492,-0.942005 -8.636236,-3.082515 C 28.100193,56.69453 26.91393,54.27276 26.494065,50.890821 26.309915,49.407634 26.147393,48.933524 25.657806,48.443912 25.226372,48.012314 24.66385,47.800813 24.097809,47.808313 Z m 65.943646,0.002 c -0.56595,-0.0054 -1.129,0.202647 -1.56,0.633723 -0.48113,0.481459 -0.6512,0.963558 -0.82497,2.347507 -0.42018,3.348652 -1.43003,5.4698 -3.63001,7.62939 -4.30072,4.221496 -10.33272,4.50908 -15.575609,0.742452 -0.66565,-0.47824 -1.477269,-0.860618 -1.828119,-0.860618 -1.550837,0 -2.696796,1.353014 -2.3775,2.806875 0.340453,1.550155 4.431765,4.10703 7.837488,4.899399 1.69527,0.3946 1.71319,0.406929 1.96499,1.342448 1.06244,3.945544 4.65645,7.341322 8.74501,8.263167 3.02214,0.681332 4.75311,-0.0536 4.75311,-2.01001 0,-1.374349 -0.78035,-2.061902 -2.68123,-2.368145 -1.76889,-0.284697 -2.87714,-0.719827 -3.97128,-1.554339 -0.81192,-0.619248 -2.16562,-2.522506 -2.16562,-3.045028 0,-0.156535 0.76939,-0.515238 1.70814,-0.798755 2.90852,-0.878254 4.79622,-2.019274 7.01062,-4.233712 3.07692,-3.076934 4.77659,-6.84351 4.8056,-10.651852 0.0129,-1.678075 -0.0367,-1.86873 -0.63371,-2.467496 -0.44201,-0.442854 -1.01092,-0.667339 -1.57691,-0.675006 z"
       sodipodi:nodetypes="sssscccscccscccccccccccsscccssssssssssssscssscccccssscsssccscssssssssssscssssscsssssccsssccccccscccsscssssssssssssscccsssssssssscsscssscsscssssscssssscssss" />
  </g>
  <g
     inkscape:groupmode="layer"
     id="layer4"
     inkscape:label="Layer 4"
     style="display:none"
     transform="translate(32.296262)">
    <g
       id="g1383"
       transform="matrix(2.0978439,-0.54980583,0.54980583,2.0978439,-57.91907,34.351889)"
       style="display:inline;fill:#182224;fill-opacity:1">
      <path
         id="path916"
         style="fill:#182224;fill-opacity:1;stroke-width:0.140726"
         d="m 29.932508,27.760286 a 7.8896106,7.8896106 0 0 1 -3.98973,-0.98188 7.8896106,7.8896106 0 0 1 -2.328678,-1.956411 7.0722182,7.0722182 0 0 0 2.879898,9.403309 7.0722182,7.0722182 0 0 0 6.846141,-0.0033 7.8896111,7.8896111 0 0 1 -3.407631,-6.461756 z" />
      <path
         id="path916-7"
         style="fill:#182224;fill-opacity:1;stroke-width:0.140726"
         d="m 25.916721,13.913756 a 7.0722181,7.0722181 0 0 0 -2.398176,2.549662 7.0722181,7.0722181 0 0 0 2.770018,9.610143 7.0722181,7.0722181 0 0 0 3.759939,0.873761 7.8896119,7.8896119 0 0 1 0.947841,-3.063655 7.8896119,7.8896119 0 0 1 0.291858,-0.485625 7.8896115,7.8896115 0 0 1 -1.436999,-5.108248 7.8896111,7.8896111 0 0 1 -0.157932,-0.08018 7.8896111,7.8896111 0 0 1 -0.06963,-0.03653 7.8896114,7.8896114 0 0 1 -0.009,-0.0047 7.8896111,7.8896111 0 0 1 -0.0089,-0.0049 7.8896111,7.8896111 0 0 1 -0.06896,-0.03716 7.8896111,7.8896111 0 0 1 -0.02443,-0.01318 7.8896111,7.8896111 0 0 1 -0.154109,-0.08766 7.8896111,7.8896111 0 0 1 -0.07626,-0.04499 7.8896111,7.8896111 0 0 1 -0.151064,-0.0926 7.8896111,7.8896111 0 0 1 -0.07481,-0.04762 7.8896111,7.8896111 0 0 1 -0.436952,-0.302656 7.8896111,7.8896111 0 0 1 -0.210591,-0.162189 7.8896111,7.8896111 0 0 1 -0.06879,-0.05567 7.8896114,7.8896114 0 0 1 -2.42e-4,-1.34e-4 7.8896111,7.8896111 0 0 1 -0.464382,-0.410436 7.8896114,7.8896114 0 0 1 -2.43e-4,-1.34e-4 7.8896111,7.8896111 0 0 1 -0.489472,-0.512231 7.8896111,7.8896111 0 0 1 -1.468599,-2.483245 z" />
      <path
         id="path916-7-1"
         style="fill:#182224;fill-opacity:1;stroke-width:0.140726"
         d="m 38.677716,26.663725 a 7.8896119,7.8896119 0 0 1 -4.770896,-0.925809 7.8896119,7.8896119 0 0 1 -2.14048,-1.731533 7.0722182,7.0722182 0 0 0 -0.183683,0.313016 7.0722182,7.0722182 0 0 0 2.769885,9.610384 7.0722182,7.0722182 0 0 0 9.277278,-2.226662 7.8896117,7.8896117 0 0 1 -1.260045,-0.558322 7.8896117,7.8896117 0 0 1 -3.69211,-4.481095 z" />
      <path
         id="path916-7-1-4"
         style="fill:#182224;fill-opacity:1;stroke-width:0.140726"
         d="m 36.698587,5.0274863 a 7.0722184,7.0722184 0 0 0 -9.610275,2.7702583 7.0722184,7.0722184 0 0 0 2.769884,9.6103834 7.0722184,7.0722184 0 0 0 0.09508,0.05128 7.8896119,7.8896119 0 0 1 0.863486,-2.442658 7.8896119,7.8896119 0 0 1 9.531853,-3.624068 7.0722184,7.0722184 0 0 0 -3.650028,-6.3651894 z" />
      <path
         id="path916-7-1-4-7"
         style="fill:#182224;fill-opacity:1;stroke-width:0.140726"
         d="m 49.556001,18.059333 a 7.0722184,7.0722184 0 0 0 -4.112246,-0.847658 7.8896119,7.8896119 0 0 1 -0.815524,5.436316 7.8896119,7.8896119 0 0 1 -5.186047,3.88418 7.0722184,7.0722184 0 0 0 3.273558,3.907564 7.0722184,7.0722184 0 0 0 9.610384,-2.769886 7.0722184,7.0722184 0 0 0 -2.770125,-9.610516 z" />
      <circle
         style="fill:#182224;fill-opacity:1;stroke-width:0.140726"
         id="path916-7-1-4-7-5"
         cx="42.087482"
         cy="-1.7257267"
         transform="rotate(28.920957)"
         r="7.0722194" />
      <path
         style="fill:#182224;fill-opacity:1;stroke:#000000;stroke-width:0.329067px;stroke-linecap:butt;stroke-linejoin:miter;stroke-opacity:1"
         d="m 42.961623,12.505617 c 0,0 0.771007,-0.0735 1.626567,2.31628"
         id="path1411" />
      <path
         style="fill:#182224;fill-opacity:1;stroke:#000000;stroke-width:0;stroke-linecap:butt;stroke-linejoin:miter;stroke-miterlimit:4;stroke-dasharray:none;stroke-opacity:1"
         d="m 44.58819,14.821897 c 0,0 5.156423,0.3205 6.921649,-2.48139 L 49.971428,9.3600632 c 0,0 -4.396797,4.2584888 -7.009805,3.1455538"
         id="path1413" />
    </g>
  </g>
</svg>
